<svg width="57" height="38" viewBox="0 0 57 38" fill="none" xmlns="http://www.w3.org/2000/svg">
<path d="M25.2136 30.6403C26.9539 30.5598 28.8156 31.4862 29.7464 32.2112L50.9937 10.9042C31.4057 -8.67078 9.22754 5.58755 9.22754 5.58755L23.959 30.7612C24.3637 30.6806 24.7684 30.6403 25.2136 30.6403Z" fill="#FBBC33"/>
<path d="M25.173 30.64C25.942 30.64 26.6704 30.7608 27.3585 30.9622L37.2334 10.7831C32.215 8.28583 25.0921 6.43305 16.9169 9.57472C1.05224 15.6567 0 31.365 0 31.365L19.1024 33.9428C20.4379 31.9692 22.6638 30.64 25.173 30.64Z" fill="#F39312"/>
<path d="M23.9996 30.7613L16.6744 18.3154C16.0268 18.6377 15.3388 19.0002 14.6913 19.4029C4.37115 25.7668 6.15188 37.689 6.15188 37.689H17.9694C18.0504 34.1849 20.6405 31.2849 23.9996 30.7613Z" fill="#EA5B1A"/>
<path d="M31.2846 33.983L53.1795 22.5441C53.0986 22.383 53.0176 22.1816 52.9367 22.0205L30.9204 33.4997C31.0418 33.6608 31.1632 33.8219 31.2846 33.983Z" fill="#F39312"/>
<path d="M31.8512 35.1104L54.8792 27.2563C54.8388 27.0549 54.7983 26.8535 54.7173 26.6924L31.5679 34.5868C31.6893 34.7077 31.7702 34.909 31.8512 35.1104Z" fill="#F39312"/>
<path d="M31.6084 34.547L54.1508 24.8803C54.0699 24.6789 54.0294 24.5178 53.9485 24.3164L31.2847 34.0234C31.4061 34.1845 31.487 34.3456 31.6084 34.547Z" fill="#F39312"/>
<path d="M30.9202 33.4595L52.0057 20.2886C51.9247 20.1275 51.8033 19.9664 51.7224 19.765L30.556 32.9761L50.6297 18.1539C50.5082 17.9928 50.3868 17.8317 50.2654 17.6706L30.6774 32.1706L49.0917 16.2206C48.9703 16.0595 48.8085 15.8984 48.687 15.7372L30.1513 31.8081L47.4324 14.4081C47.2705 14.247 47.1491 14.1261 46.9873 13.965L30.2727 30.8011L45.6922 12.797C45.5303 12.6761 45.3684 12.515 45.2065 12.3942L30.1108 29.9956L43.9115 11.3872C43.7496 11.2664 43.5877 11.1456 43.4258 11.0247L29.868 29.3109L42.1712 10.1789C42.0093 10.0581 41.8474 9.93724 41.6451 9.85668L30.1108 27.9011L40.5928 9.17196C40.3905 9.05113 40.2286 8.97057 40.0667 8.89002L29.7466 27.297L38.9335 8.28585C38.6907 8.16502 38.4883 8.08446 38.3669 8.00391L27.2778 30.9622C28.7753 31.4053 30.0299 32.2914 30.9202 33.4595Z" fill="#F39312"/>
<path d="M56.0123 35.9566C56.0123 35.7552 56.0123 35.5538 56.0123 35.3524L32.701 36.8024L56.0123 33.9427C56.0123 33.7413 55.9718 33.5399 55.9718 33.3385L32.4581 36.2385L55.81 31.808C55.7695 31.6066 55.7695 31.4052 55.729 31.2038L32.3367 35.6344L55.4457 29.5524C55.4052 29.351 55.3648 29.1496 55.3243 28.9482L31.8511 35.1107C32.1748 35.9566 32.3772 36.8427 32.3772 37.8094C32.3772 37.8496 32.3772 37.8899 32.3772 37.9302H55.9314C55.9314 37.7288 55.9314 37.5274 55.9314 37.326H34.0365L56.0123 35.9566Z" fill="#F39312"/>
</svg>
