<svg width="39" height="49" viewBox="0 0 39 49" fill="none" xmlns="http://www.w3.org/2000/svg">
<path d="M14.5 49C22.4967 49 29 42.5075 29 34.5241C29 29.4277 26.3933 24.7922 22.0215 22.1355L21.7636 22.0271C21.7093 22.0136 21.6278 22 21.5599 22H21.4785L14.6765 22.1084L16.1971 25.5648C20.4195 26.3509 23.6236 30.0783 23.6236 34.5241C23.6236 39.5527 19.537 43.6325 14.5 43.6325C9.46301 43.6325 5.36283 39.5392 5.36283 34.5241C5.36283 32.762 5.86517 31.1084 6.74766 29.7123L4.33099 24.1958C1.58848 26.8931 0 30.5798 0 34.5241C0 42.5075 6.50328 49 14.5 49Z" fill="black"/>
<path d="M30.8529 38.1644L33.1952 44.0411C33.6789 45.2603 34.7991 46 35.983 46C36.3649 46 36.7595 45.9178 37.1414 45.7534C38.2999 45.2329 39 44.0411 39 42.7671C39 42.3699 38.9363 41.9726 38.7963 41.5753L35.1047 31.3288C34.6082 29.9315 33.3352 29 31.9477 29H30C30.7256 30.9452 31.1202 33.0411 31.1202 35.2329C31.0948 36.2329 31.0057 37.2192 30.8529 38.1644Z" fill="black"/>
<path d="M5.33753 22.0446L8.72877 30.0947L10.3443 33.9387C10.8783 35.2061 12.08 36 13.3083 36C13.6154 36 13.9091 35.9582 14.2162 35.8607C15.0573 35.5822 15.7516 34.9276 16.1121 34.0919C16.4725 33.2563 16.4725 32.2953 16.1254 31.4457L14.4698 27.4902L11.8663 21.2925L13.5219 20.1643V20.0251L21.0788 19.8997C21.3858 19.8997 21.7063 19.9554 22 20.0669V14.454C22 12.9777 21.2256 11.6964 20.0908 11C19.1028 11.5153 18.008 11.8078 16.833 11.8078C15.6715 11.8078 14.5767 11.5292 13.602 11C13.4551 11.0975 13.3083 11.195 13.1748 11.3064L6.60591 16.7799C5.43099 17.7549 4.85689 19.2869 5.03045 20.7911C5.05716 21.2228 5.16397 21.6407 5.33753 22.0446Z" fill="#D44C22"/>
<path d="M17.5 10C20.5354 10 23 7.74684 23 5C23 2.25316 20.5215 0 17.5 0C14.4646 0 12 2.24051 12 5C12 7.75949 14.4646 10 17.5 10Z" fill="black"/>
</svg>
