<svg width="44" height="44" viewBox="0 0 44 44" fill="none" xmlns="http://www.w3.org/2000/svg">
<path d="M42.8604 25.1987L31.8605 22.0559C31.3891 21.9282 30.8784 22.0166 30.4855 22.3112C30.0927 22.6059 29.8569 23.0773 29.8569 23.5684V30.1388C29.3659 29.962 28.8355 29.854 28.2855 29.854C25.6829 29.854 23.5713 31.9656 23.5713 34.5683C23.5713 37.1709 25.6829 39.2825 28.2855 39.2825C30.8882 39.2825 32.9998 37.1709 32.9998 34.5683V25.6505L40.8569 27.8897V33.2817C40.3658 33.1049 39.8354 32.9968 39.2854 32.9968C36.6828 32.9968 34.5712 35.1084 34.5712 37.7111C34.5712 40.3137 36.6828 42.4253 39.2854 42.4253C41.8881 42.4253 43.9997 40.3137 43.9997 37.7111V26.7112C43.9997 26.0139 43.5381 25.3951 42.8604 25.1987Z" fill="black"/>
<path d="M20.8114 25.1897L8.24011 22.0468C7.76868 21.929 7.27762 22.037 6.89458 22.3317C6.51155 22.6263 6.28566 23.0879 6.28566 23.5691V30.1396C5.79459 29.9628 5.26424 29.8548 4.71425 29.8548C2.11159 29.8548 0 31.9664 0 34.5691C0 37.1717 2.11159 39.2833 4.71425 39.2833C7.3169 39.2833 9.42849 37.1717 9.42849 34.5691V25.5825L18.857 27.9396V34.8539C18.3659 34.6771 17.8356 34.5691 17.2856 34.5691C14.6829 34.5691 12.5713 36.6806 12.5713 39.2833C12.5713 41.886 14.6829 43.9975 17.2856 43.9975C19.8882 43.9975 21.9998 41.886 21.9998 39.2833V26.712C21.9998 25.995 21.5087 25.3665 20.8114 25.1897Z" fill="black"/>
<path d="M34.748 11.2822L22.7071 14.0617C22.4812 14.1108 22.2455 14.1402 21.9999 14.1402C21.7544 14.1402 21.5187 14.1108 21.2928 14.0617L9.25183 11.2822L7.93578 16.792C7.79828 17.2045 7.83756 17.6661 8.04381 18.0491C8.25988 18.4322 8.61345 18.7072 9.04559 18.8152L21.6169 21.958C21.7446 21.9875 21.8723 22.0071 21.9999 22.0071C22.1276 22.0071 22.2553 21.9875 22.383 21.958L34.9543 18.8152C35.3766 18.7072 35.74 18.4322 35.9561 18.0491C36.1623 17.6661 36.2114 17.2143 36.0641 16.792L34.748 11.2822Z" fill="#D44C22"/>
<path d="M42.7818 4.75108L22.3534 0.03683C22.1275 -0.0122767 21.882 -0.0122767 21.6462 0.03683L1.21785 4.75108C0.500889 4.91804 0 5.55643 0 6.28321C0 7.00998 0.500889 7.64837 1.21785 7.81533L21.6462 12.5296C21.7641 12.559 21.882 12.5689 21.9998 12.5689C22.1177 12.5689 22.2355 12.559 22.3534 12.5296L40.8568 8.2573V20.4259C40.8568 21.2902 41.5639 21.9974 42.4282 21.9974C43.2925 21.9974 43.9996 21.2902 43.9996 20.4259V6.28321C43.9996 5.55643 43.4987 4.91804 42.7818 4.75108Z" fill="#D44C22"/>
</svg>
