<svg width="45" height="45" viewBox="0 0 45 45" fill="none" xmlns="http://www.w3.org/2000/svg">
<path d="M22.5002 1.40894C18.8632 1.40894 15.9043 4.4559 15.9043 8.09289C15.9043 11.7299 18.8632 14.6888 22.5002 14.6888C26.1372 14.6888 29.0961 11.7299 29.0961 8.09289C29.0961 4.4559 26.1372 1.40894 22.5002 1.40894Z" fill="#D44C22"/>
<path d="M31.7291 25.2215C34.6351 25.2215 37.004 22.8526 37.004 19.9466C37.004 17.0405 34.6351 14.6716 31.7291 14.6716C28.823 14.6716 26.4541 17.0405 26.4541 19.9466C26.4541 22.8526 28.823 25.2215 31.7291 25.2215Z" fill="#D44C22"/>
<path d="M1.32094 41.0458H2.64188C4.09491 41.0458 5.27495 39.8658 5.27495 38.4128V22.5879C5.27495 21.1349 4.09491 19.9548 2.64188 19.9548H1.32094C0.59002 19.9548 0 20.5449 0 21.2758V39.7337C0 40.4558 0.59002 41.0458 1.32094 41.0458Z" fill="black"/>
<path d="M7.90787 22.5876V38.4037C7.90787 38.6679 7.86384 38.9233 7.82861 39.1786L15.5253 42.983C16.4323 43.4409 17.4539 43.6786 18.4754 43.6786C18.8805 43.6786 30.3815 43.6786 30.3815 43.6786C31.3589 43.6786 32.3188 43.4057 33.1554 42.8949L43.9431 35.2599C45.1055 34.388 45.3433 32.7325 44.4715 31.57C43.6789 30.5133 42.1466 30.0554 40.7816 31.0417L32.6711 35.6209C32.4861 35.7178 32.2748 35.7706 32.0546 35.7706C31.5791 35.7706 16.3971 35.7706 16.9607 35.7706C16.2298 35.7706 15.6398 35.1806 15.6398 34.4497C15.6398 33.7188 16.2298 33.1287 16.9607 33.1287H29.0869C30.54 33.1287 31.72 31.9487 31.72 30.4957C31.72 29.0426 30.54 27.8626 29.0869 27.8626H22.8961L16.6437 23.6972C15.5605 22.9751 14.2924 22.5876 12.9891 22.5876H7.90787Z" fill="black"/>
</svg>
