<svg width="37" height="44" viewBox="0 0 37 44" fill="none" xmlns="http://www.w3.org/2000/svg">
<path d="M9.72453 34.4883C8.67158 34.4883 7.8208 35.3391 7.8208 36.392C7.8208 37.445 8.67158 38.2957 9.72453 38.2957C10.7775 38.2957 11.6282 37.445 11.6282 36.392C11.6367 35.3475 10.7775 34.4883 9.72453 34.4883Z" fill="black"/>
<path d="M25.5782 13.9177H36.2508L23.4639 1.12231V11.795C23.4639 12.9658 24.4157 13.9177 25.5782 13.9177Z" fill="#D44C22"/>
<path d="M25.5779 16.4446C23.0171 16.4446 20.9281 14.364 20.9281 11.7948V0.380859H5.27712C2.71636 0.380859 0.635742 2.46148 0.635742 5.03066V38.8681C0.635742 41.4289 2.71636 43.5179 5.28555 43.5179H32.3504C34.9112 43.5179 37.0003 41.4373 37.0003 38.8681V16.4446H25.5779ZM26.9173 35.128C26.9173 37.5709 24.9293 39.5588 22.4865 39.5588C20.0436 39.5588 18.0557 37.5709 18.0557 35.128C18.0557 32.6852 20.0436 30.6973 22.4865 30.6973C23.1688 30.6973 23.8174 30.8489 24.3902 31.1269V25.7189L14.164 26.6371V36.4C14.164 38.8428 12.176 40.8308 9.73319 40.8308C7.29036 40.8308 5.30239 38.8428 5.30239 36.4C5.30239 33.9572 7.29036 31.9692 9.73319 31.9692C10.4155 31.9692 11.0641 32.1208 11.6369 32.3988V22.7707C11.6369 21.3639 12.732 20.1678 14.1387 20.0415L24.1964 19.1401C24.904 19.0727 25.6032 19.3086 26.117 19.7803C26.6309 20.252 26.9257 20.9259 26.9257 21.6335L26.9173 35.128Z" fill="black"/>
<path d="M14.1636 22.7707V24.0932L24.3898 23.1751V21.6504L14.3573 22.5517C14.2647 22.5601 14.1636 22.6781 14.1636 22.7707Z" fill="black"/>
<path d="M22.4867 33.2246C21.4338 33.2246 20.583 34.0754 20.583 35.1283C20.583 36.1813 21.4338 37.0321 22.4867 37.0321C23.5397 37.0321 24.3905 36.1813 24.3905 35.1283C24.3905 34.0754 23.5313 33.2246 22.4867 33.2246Z" fill="black"/>
</svg>
