<svg width="369" height="333" viewBox="0 0 369 333" fill="none" xmlns="http://www.w3.org/2000/svg">
<g clip-path="url(#clip0_10_22)">
<path d="M323.468 204.35V192.138L310.675 199.321L318.035 207.633L323.468 204.35Z" fill="#B5B5B5"/>
<path d="M0 255.591V268.863L6.43085 267.837L8.9069 259.73L0 255.591Z" fill="#444444"/>
<path d="M97.5631 327.254L3.47329 273.242C-1.65076 270.3 -1.06614 265.203 4.78009 261.851L206.097 146.233C211.943 142.881 220.815 142.539 225.905 145.48L319.995 199.492C325.119 202.434 324.534 207.531 318.688 210.883L117.372 326.501C111.56 329.853 102.687 330.195 97.5631 327.254Z" fill="#141414"/>
<path d="M54.5074 299.512L46.082 294.689C44.5688 293.834 43.3308 291.508 43.3308 289.489C43.3308 287.471 44.5688 286.548 46.082 287.437L54.5074 292.26C56.0206 293.115 57.2586 295.441 57.2586 297.46C57.2242 299.444 56.0206 300.367 54.5074 299.512Z" fill="#444444"/>
<path d="M97.5633 314.871L3.47344 260.824C-1.61621 257.883 -1.03159 252.786 4.78025 249.468L206.097 133.85C211.943 130.498 220.816 130.156 225.905 133.098L319.995 187.11C325.119 190.051 324.534 195.148 318.688 198.5L117.372 314.118C111.56 317.47 102.687 317.778 97.5633 314.871Z" fill="#CCCCCC"/>
<path d="M125.831 309.261L12.7585 244.884L191.859 142.025L304.485 206.676L125.831 309.261Z" fill="#ECE1DE"/>
<path d="M274.635 178.216L241.415 159.129C240.658 158.718 240.761 157.966 241.621 157.453C242.481 156.974 243.753 156.905 244.51 157.35L277.765 176.437C278.521 176.848 278.418 177.6 277.558 178.113C276.664 178.592 275.392 178.661 274.635 178.216Z" fill="#5E5E5E"/>
<path d="M259.572 243.037L243.34 252.375C241.999 253.162 240.899 252.341 240.899 250.528C240.899 248.749 241.999 246.663 243.34 245.91L259.572 236.572C260.914 235.785 262.014 236.606 262.014 238.419C262.014 240.198 260.914 242.25 259.572 243.037Z" fill="#444444"/>
<path d="M304.519 217.211L273.191 235.203C271.849 235.99 270.749 235.169 270.749 233.356C270.749 231.577 271.849 229.491 273.191 228.738L304.519 210.746C305.861 209.959 306.961 210.78 306.961 212.593C306.961 214.372 305.861 216.458 304.519 217.211Z" fill="#444444"/>
<path d="M369 273.652L367.349 273.823L310.641 241.258C309.816 240.779 308.337 240.848 307.374 241.395L209.948 297.357L208.71 297.083V298.656C208.71 298.964 208.882 299.272 209.261 299.512L267.069 332.726C267.895 333.205 269.374 333.137 270.336 332.589L368.175 276.388C368.691 276.08 368.966 275.738 368.966 275.362V273.652H369Z" fill="#D44C22"/>
<path d="M209.501 295.92L307.34 239.719C308.302 239.172 309.781 239.103 310.607 239.582L368.415 272.797C369.241 273.276 369.138 274.131 368.175 274.678L270.336 330.879C269.373 331.427 267.895 331.495 267.069 331.016L209.261 297.802C208.435 297.323 208.538 296.502 209.501 295.92Z" fill="#ECE1DE"/>
<path d="M322.161 270.847L334.679 263.664C335.367 263.287 336.399 263.219 336.983 263.561L346.268 268.897C346.853 269.239 346.784 269.821 346.097 270.231L333.579 277.415C332.891 277.791 331.859 277.859 331.275 277.517L321.989 272.181C321.405 271.839 321.474 271.257 322.161 270.847Z" fill="#D44C22"/>
<path d="M328.523 275.91L343.483 267.324L344.549 267.939L329.59 276.525L328.523 275.91Z" fill="#A84327"/>
<path d="M331.206 265.647L342.623 272.215L341.523 272.831L330.14 266.263L331.206 265.647Z" fill="#A84327"/>
<path d="M326.838 268.179L338.221 274.712L337.155 275.328L325.772 268.795L326.838 268.179Z" fill="#A84327"/>
<path d="M326.013 274.473L341.007 265.887L342.073 266.503L327.079 275.089L326.013 274.473Z" fill="#A84327"/>
<path d="M323.503 273.036L338.496 264.45L339.562 265.066L324.569 273.652L323.503 273.036Z" fill="#A84327"/>
<path d="M247.399 287.676H233.196V295.817H247.399V287.676Z" fill="#D8C5C0"/>
<path d="M240.039 291.918H225.836V300.059H240.039V291.918Z" fill="#D8C5C0"/>
<path d="M304.21 267.871L323.124 256.993L327.114 259.285L308.165 270.129L304.21 267.871Z" fill="#D8C5C0"/>
<path d="M282.854 280.117L301.769 269.239L305.758 271.531L286.809 282.409L282.854 280.117Z" fill="#D8C5C0"/>
<path d="M261.945 292.123L280.86 281.245L284.849 283.537L265.935 294.415L261.945 292.123Z" fill="#D8C5C0"/>
<path d="M241.174 304.027L260.123 293.184L264.112 295.441L245.163 306.319L241.174 304.027Z" fill="#D8C5C0"/>
<path d="M294.134 262.09L313.048 251.212L317.037 253.504L298.123 264.382L294.134 262.09Z" fill="#D8C5C0"/>
<path d="M272.778 274.336L291.692 263.458L295.682 265.75L276.767 276.628L272.778 274.336Z" fill="#D8C5C0"/>
<path d="M329.108 286.651L353.009 272.934L356.998 275.226L333.097 288.942L329.108 286.651Z" fill="#D8C5C0"/>
<path opacity="0.37" d="M270.233 330.948L328.73 297.357L244.166 276.046L209.398 296.023C208.504 296.536 208.504 297.391 209.398 297.904L267.001 330.982C267.86 331.461 269.339 331.461 270.233 330.948Z" fill="#ECE1DE"/>
<path d="M77.717 161.824C86.8108 161.183 93.661 153.332 93.0174 144.286C92.3738 135.241 84.4801 128.427 75.3864 129.067C66.2926 129.708 59.4424 137.559 60.086 146.605C60.7296 155.65 68.6233 162.464 77.717 161.824Z" fill="#5F4B8B"/>
<path d="M55.1266 265.202C54.6795 265.989 54.2668 266.947 54.5763 267.802C54.8858 268.657 55.5392 269.341 56.3646 269.683C58.1184 270.402 60.3882 271.052 61.0416 270.778C63.7583 269.683 74.8662 261.782 75.0037 261.542C75.1413 261.303 79.0961 258.908 77.1015 253.777L55.1266 265.202Z" fill="#666666"/>
<path d="M77.1359 253.777L76.8952 253.914C78.4083 258.703 74.763 260.926 74.6254 261.166C74.4879 261.405 63.3801 269.307 60.6633 270.402C59.3565 270.949 57.7746 270.162 56.0551 269.547C55.8144 269.444 55.4361 269.102 55.2297 268.931C55.5392 269.273 55.9863 269.82 56.399 270.025C57.9121 270.778 59.7348 271.359 61.0416 270.812C63.7583 269.718 74.8662 261.816 75.0381 261.576C75.1757 261.303 79.1305 258.943 77.1359 253.777Z" fill="#333333"/>
<path d="M57.5339 258.806L55.6768 261.063L55.1266 265.168C55.1266 265.168 58.428 268.726 65.8561 264.108C70.2924 261.337 73.2843 259.387 74.9006 258.19C76.4481 257.027 77.2391 254.872 77.1359 253.641C76.964 251.759 75.0037 250.699 74.4535 250.459C73.1467 249.912 64.2398 254.017 64.2398 254.017L57.5339 258.806Z" fill="#D44C22"/>
<path d="M77.1014 253.538C76.8607 251.725 74.9693 250.699 74.4534 250.493C73.2842 250.014 65.9936 253.264 64.5149 253.948L60.1818 260.276L64.0334 261.303C73.8344 257.642 76.4136 255.009 77.1014 253.538Z" fill="#E5886E"/>
<path d="M65.3058 252.751L66.6126 253.777C66.6126 253.777 69.0887 256.548 67.885 258.19C66.6814 259.832 64.0334 261.303 64.0334 261.303L63.38 253.298L65.3058 252.751Z" fill="#DD7E64"/>
<path d="M75.7602 121.091C74.9005 124.238 69.3982 125.777 64.7212 124.546C60.0442 123.315 58.0152 119.757 58.875 116.576C59.7347 113.429 63.3456 113.224 68.0226 114.455C72.6652 115.755 76.62 117.944 75.7602 121.091Z" fill="#C93D18"/>
<path d="M61.7637 56.6457C61.6605 56.7826 61.4542 57.1246 61.3166 57.3641L60.8008 58.2192C60.4569 58.8007 60.1474 59.4165 59.8035 59.998C59.1845 61.2294 58.5654 62.4608 57.9808 63.6923C56.8116 66.1893 55.8143 68.789 54.9545 71.3887C53.2351 76.6223 52.2034 81.9927 52.1002 87.2947C52.0658 89.9286 52.3065 92.5625 52.788 95.128C52.9256 95.7437 53.0287 96.3937 53.2007 97.0436L53.7509 98.9249C53.9572 99.5406 54.198 100.122 54.4387 100.738C54.5763 101.046 54.645 101.354 54.7826 101.627L55.1953 102.517C55.7111 103.714 56.3989 104.808 57.0523 105.937C57.4306 106.485 57.8089 106.998 58.1872 107.545C58.3935 107.819 58.5654 108.092 58.7718 108.366L59.4252 109.118C61.0415 111.205 63.1049 113.018 65.2026 114.797L65.4434 115.002C67.2316 116.507 67.438 119.209 65.9248 120.988C64.4804 122.664 62.0044 122.938 60.2161 121.672C57.5338 119.757 54.8514 117.773 52.5473 115.276L51.6531 114.386C51.378 114.078 51.1029 113.736 50.8278 113.428C50.2776 112.779 49.7273 112.129 49.2115 111.444C48.2486 110.042 47.2169 108.674 46.3915 107.169L45.7381 106.04C45.5318 105.664 45.3599 105.287 45.1535 104.877C44.7752 104.09 44.3969 103.338 44.0531 102.551L43.1245 100.156C42.815 99.3354 42.6087 98.5145 42.368 97.6935C41.4394 94.4097 40.8548 91.0232 40.6485 87.671C40.2358 80.9323 40.9924 74.3305 42.5055 67.9681C43.2621 64.7869 44.225 61.6741 45.3255 58.6297C45.8757 57.0904 46.4947 55.5853 47.1137 54.0803C47.4576 53.3277 47.7671 52.5752 48.1454 51.8226L48.6956 50.6938C48.902 50.2833 49.0395 49.9755 49.349 49.4282L49.5554 49.0861C51.4468 45.597 55.8487 44.3314 59.322 46.2128C62.8298 48.0941 64.1022 52.4725 62.2107 55.9274C62.0732 56.1668 61.9012 56.4405 61.7637 56.6457Z" fill="#C93D18"/>
<path d="M72.4588 141.272L73.972 196.79L74.0064 197.918L73.972 198.192L64.8931 260.585C64.5149 263.253 62.0044 265.1 59.3564 264.724C56.846 264.347 55.0577 262.158 55.1609 259.695L57.7745 196.721V198.124L50.312 143.085C49.4866 137.031 53.7853 131.421 59.8723 130.6C65.9592 129.779 71.5991 134.055 72.4245 140.109C72.3901 140.486 72.4245 140.896 72.4588 141.272Z" fill="#1E1E1E"/>
<path d="M83.9106 275.532C83.4635 276.319 83.0509 277.277 83.3604 278.132C83.6699 278.987 84.3233 279.671 85.1486 280.013C86.9025 280.732 89.1722 281.382 89.8256 281.108C92.5424 280.013 103.65 272.112 103.788 271.872C103.925 271.633 107.88 269.238 105.886 264.107L83.9106 275.532Z" fill="#666666"/>
<path d="M105.886 264.107L105.645 264.244C107.158 269.033 103.513 271.257 103.375 271.496C103.238 271.735 92.1297 279.637 89.4129 280.732C88.1061 281.279 86.5242 280.492 84.8047 279.877C84.564 279.774 84.1857 279.432 83.9794 279.261C84.2889 279.603 84.7359 280.15 85.1486 280.355C86.6618 281.108 88.4844 281.69 89.7912 281.142C92.508 280.048 103.616 272.146 103.753 271.907C103.96 271.667 107.88 269.273 105.886 264.107Z" fill="#333333"/>
<path d="M86.3179 269.136L84.4609 271.394L83.9106 275.498C83.9106 275.498 87.212 279.056 94.6402 274.438C99.0764 271.667 102.068 269.717 103.685 268.52C105.232 267.357 106.023 265.202 105.92 263.971C105.748 262.089 103.788 261.029 103.238 260.789C101.931 260.242 93.0239 264.347 93.0239 264.347L86.3179 269.136Z" fill="#D44C22"/>
<path d="M105.886 263.868C105.645 262.055 103.753 261.029 103.238 260.823C102.068 260.344 94.7777 263.594 93.2989 264.278L89.0002 270.606L92.8519 271.633C102.584 267.972 105.198 265.373 105.886 263.868Z" fill="#CE775F"/>
<path d="M94.0899 263.081L95.3967 264.107C95.3967 264.107 97.8727 266.878 96.6691 268.52C95.4655 270.162 92.8175 271.633 92.8175 271.633L92.1641 263.628L94.0899 263.081Z" fill="#D6785F"/>
<path d="M94.365 149.825L96.8411 206.949L96.8755 207.668L93.8148 271.018C93.6772 273.618 91.4763 275.636 88.8627 275.499C86.421 275.396 84.4952 273.413 84.3577 271.018L81.0563 207.668L81.0907 208.386L72.906 151.843C72.0462 145.959 76.1386 140.52 82.0536 139.699C87.9686 138.844 93.4365 142.915 94.2619 148.798C94.3306 149.106 94.3306 149.482 94.365 149.825Z" fill="#1E1E1E"/>
<path d="M95.1903 139.46L95.3279 136.826L94.3994 92.7677L94.984 83.4636L100.418 64.0685L82.535 52.7461L58.9093 46.4521L50.6902 61.8109C48.6269 74.5357 47.5952 91.0574 48.7644 103.816C49.1427 108.092 50.2776 110.418 49.9681 114.626L50.6558 133.576C50.7246 135.15 51.3436 136.62 52.4097 137.783C56.5021 142.162 68.3665 152.663 90.2382 156.084C91.4075 156.255 92.5767 155.947 93.5052 155.195C94.3994 154.442 94.9496 153.347 94.984 152.15L95.1903 139.46Z" fill="#D44C22"/>
<path d="M95.1904 139.46L95.3279 136.826L95.4999 94.9911L98.0791 85.4817L100.452 64.1027L82.5694 52.7803L58.9438 46.4863L53.4758 48.3677L70.7738 52.9856L88.6563 64.3079L83.2228 83.703L82.6382 93.0071L83.5667 137.065L86.7305 155.537C87.3152 155.639 88.6907 155.879 90.2383 156.152C91.4075 156.323 92.5768 156.015 93.5053 155.263C94.3994 154.51 94.9496 153.416 94.9496 152.219L95.1904 139.46Z" fill="#C44726"/>
<path d="M66.8533 35.8135L65.1682 48.8461C70.533 51.8905 74.6597 53.635 81.0562 53.293L80.1965 38.6184L66.8533 35.8135Z" fill="#E8D0CA"/>
<path d="M66.9221 35.6768C66.9221 35.6768 70.8081 43.3048 80.5404 44.502L80.2997 39.1658L66.9221 35.6768Z" fill="#E6E6E6"/>
<path d="M92.164 21.9261C91.1324 31.025 83.5323 40.6028 74.5566 40.295C68.0226 39.0978 61.5917 31.025 58.9437 21.4814C59.322 10.2275 66.8533 3.48883 75.829 3.79669C83.1196 0.85493 87.8653 7.66202 90.2038 17.6503C90.5477 19.0528 91.9921 20.3526 92.164 21.9261Z" fill="#EAD0CA"/>
<path d="M90.2039 17.6161C88.0717 8.55135 83.945 2.08632 77.7549 3.21514C82.7413 3.83085 86.1115 9.74857 87.9686 17.7187C88.3125 19.1554 89.7568 20.4552 89.9288 21.9945C89.0002 30.3751 82.4318 39.1661 74.4191 40.2607C74.4878 40.2607 74.5222 40.2949 74.591 40.2949C83.5667 40.6028 91.1668 31.025 92.1985 21.9261C91.9921 20.3526 90.5478 19.0527 90.2039 17.6161Z" fill="#F4E1DC"/>
<path d="M90.3414 9.16705C90.3414 9.16705 80.2309 19.3948 58.9437 21.4814C58.9437 21.4814 61.3854 -7.97039 88.6219 2.12052C88.6219 2.12052 91.2011 4.95965 90.3414 9.16705Z" fill="#0F0F0F"/>
<path d="M79.5087 32.1537C79.5087 32.1537 77.3422 29.6909 77.4453 26.8859C77.5485 24.081 81.0906 23.4995 81.0906 23.4995L80.678 15.1189L73.2154 3.89917C65.4434 4.85695 59.322 11.3562 58.9781 21.4813C61.2135 29.6224 66.2 36.669 71.6679 39.3371L79.5087 32.1537Z" fill="#0F0F0F"/>
<path d="M166.273 96.9749C168.199 99.6088 165.998 102.687 162.078 105.527C158.192 108.366 154.134 107.716 152.174 105.082C150.248 102.448 152.346 99.5062 156.232 96.6671C157.573 95.6751 160.324 94.2384 161.631 93.6569C164.141 92.5965 165.001 95.2646 166.273 96.9749Z" fill="#E5C6BD"/>
<path d="M162.972 93.4171L157.848 98.8901L152.965 99.6085L156.266 95.5379C157.367 94.1696 159.052 93.3829 160.806 93.4171H162.972Z" fill="#E5C6BD"/>
<path d="M101.415 65.6076C101.484 65.7787 101.656 66.1549 101.793 66.4286L102.275 67.3522C102.584 67.9679 102.928 68.6178 103.272 69.2677C103.96 70.5334 104.682 71.799 105.473 73.0304C107.02 75.5275 108.671 77.922 110.459 80.2138C114.036 84.8317 118.059 89.0049 122.599 92.4255C124.868 94.1016 127.276 95.6067 129.752 96.8723L131.643 97.7617L133.569 98.5143C134.222 98.7879 134.876 98.9589 135.529 99.1642L136.527 99.472C136.87 99.5746 137.214 99.6431 137.524 99.7115C142.889 101.046 148.597 100.943 154.237 99.7799L154.478 99.7457C156.782 99.2668 159.052 100.703 159.533 102.995C160.015 105.219 158.639 107.374 156.472 107.955L153.962 108.639L152.69 108.981C152.277 109.084 151.83 109.152 151.417 109.221L148.838 109.7L146.224 109.973C142.717 110.247 139.14 110.179 135.632 109.597C135.185 109.529 134.738 109.495 134.326 109.392L133.019 109.118C132.159 108.913 131.265 108.776 130.44 108.503L127.895 107.75L125.419 106.826C122.152 105.527 119.022 103.885 116.065 102.038C110.184 98.309 105.026 93.7253 100.418 88.7312C98.1134 86.2341 95.9812 83.6002 93.9867 80.8637C92.9894 79.4955 92.0264 78.093 91.0635 76.6905C90.5821 75.9722 90.135 75.2539 89.688 74.5013L89.0002 73.3725C88.7594 72.962 88.5531 72.6542 88.278 72.1069L88.106 71.799C86.1802 68.2073 87.5558 63.7947 91.1667 61.8791C94.7776 59.9636 99.2139 61.3318 101.14 64.9235C101.174 65.0945 101.312 65.3682 101.415 65.6076Z" fill="#D44C22"/>
<path d="M65.4434 46.5547C65.4434 46.5547 69.3294 52.8487 80.9531 52.0619L81.0219 53.3276C81.0219 53.3276 73.0779 54.559 65.1339 48.8807L65.4434 46.5547Z" fill="#D44C22"/>
<g opacity="0.54">
<path fill-rule="evenodd" clip-rule="evenodd" d="M210.464 215.98C200.766 221.521 183.984 220.358 172.98 213.414C161.975 206.47 160.943 196.379 170.641 190.838C180.339 185.297 197.121 186.46 208.126 193.369C219.13 200.347 220.162 210.472 210.464 215.98ZM202.383 196.687C209.776 201.339 210.499 208.146 203.965 211.875C197.431 215.603 186.151 214.817 178.757 210.165C171.363 205.513 170.641 198.705 177.175 194.977C183.675 191.248 194.954 192.035 202.383 196.687Z" fill="#808080"/>
<path fill-rule="evenodd" clip-rule="evenodd" d="M187.492 173.769L178.241 179.036L180.236 180.302L187.698 176.06L196.158 181.397L197.912 180.405L187.492 173.769ZM152.552 196.071L150.558 194.806L141.307 200.073L151.761 206.675L153.515 205.683L145.055 200.347L152.552 196.071ZM229.31 200.176L227.556 201.168L236.016 206.504L228.553 210.746L230.548 212.011L239.798 206.744L229.31 200.176ZM202.864 227.815L200.869 226.549L193.407 230.791L184.947 225.455L183.193 226.447L193.648 233.048L202.864 227.815Z" fill="#808080"/>
</g>
</g>
<defs>
<clipPath id="clip0_10_22">
<rect width="369" height="333" fill="white"/>
</clipPath>
</defs>
</svg>
