<svg width="17" height="17" viewBox="0 0 17 17" fill="none" xmlns="http://www.w3.org/2000/svg">
<path fill-rule="evenodd" clip-rule="evenodd" d="M8.5 1.54545C7.58671 1.54545 6.68238 1.72534 5.83861 2.07484C4.99485 2.42434 4.22819 2.93661 3.58239 3.5824C2.9366 4.22819 2.42434 4.99486 2.07483 5.83862C1.72534 6.68238 1.54545 7.58671 1.54545 8.50004C1.54545 9.41329 1.72534 10.3177 2.07483 11.1614C2.42434 12.0051 2.9366 12.7718 3.58239 13.4176C4.22819 14.0634 4.99485 14.5757 5.83861 14.9252C6.68238 15.2747 7.58671 15.4545 8.5 15.4545C10.3444 15.4545 12.1133 14.7219 13.4176 13.4176C14.7218 12.1134 15.4545 10.3445 15.4545 8.50004C15.4545 6.65555 14.7218 4.88663 13.4176 3.5824C12.1133 2.27817 10.3444 1.54545 8.5 1.54545ZM0 8.50004C0 3.80569 3.80568 0 8.5 0C13.1943 0 17 3.80569 17 8.50004C17 13.1944 13.1943 17 8.5 17C3.80568 17 0 13.1944 0 8.50004ZM9.46591 4.82956C9.46591 5.08573 9.36414 5.33141 9.18301 5.51256C9.00189 5.6937 8.75616 5.79547 8.5 5.79547C8.24384 5.79547 7.99811 5.6937 7.81699 5.51256C7.63586 5.33141 7.53409 5.08573 7.53409 4.82956C7.53409 4.57338 7.63586 4.3277 7.81699 4.14655C7.99811 3.96541 8.24384 3.86364 8.5 3.86364C8.75616 3.86364 9.00189 3.96541 9.18301 4.14655C9.36414 4.3277 9.46591 4.57338 9.46591 4.82956ZM7.72727 6.95455C7.52235 6.95455 7.32576 7.03596 7.18088 7.18085C7.03599 7.32582 6.95455 7.52234 6.95455 7.72727C6.95455 7.93221 7.03599 8.1288 7.18088 8.2737C7.32576 8.41859 7.52235 8.50004 7.72727 8.50004V12.3636C7.72727 12.5686 7.80872 12.7652 7.9536 12.9101C8.09849 13.055 8.29507 13.1364 8.5 13.1364C8.70493 13.1364 8.90151 13.055 9.0464 12.9101C9.19128 12.7652 9.27273 12.5686 9.27273 12.3636V7.72727C9.27273 7.52234 9.19128 7.32582 9.0464 7.18085C8.90151 7.03596 8.70493 6.95455 8.5 6.95455H7.72727Z" fill="#D44C22"/>
</svg>
