<svg width="18" height="18" viewBox="0 0 18 18" fill="none" xmlns="http://www.w3.org/2000/svg">
<path d="M15.3625 2.63747C11.8462 -0.878892 6.15435 -0.87942 2.6375 2.63747C-0.878887 6.15379 -0.87945 11.8457 2.6375 15.3625C6.15386 18.8789 11.8457 18.8794 15.3625 15.3625C18.8789 11.8462 18.8794 6.15432 15.3625 2.63747ZM8.99998 16.5198C4.85354 16.5198 1.48014 13.1464 1.48014 8.99998C1.48014 4.85354 4.85354 1.48018 8.99998 1.48018C13.1464 1.48018 16.5198 4.85358 16.5198 9.00002C16.5198 13.1465 13.1465 16.5198 8.99998 16.5198Z" fill="#D44C22"/>
<path d="M10.2038 5H7.39497C6.95868 5 6.605 5.3314 6.605 5.74021V8.75979H5.78997C5.35368 8.75979 5 9.09119 5 9.5C5 9.90881 5.35368 10.2402 5.78997 10.2402H6.605V11.0157H5.78997C5.35368 11.0157 5 11.3471 5 11.7559C5 12.1647 5.35368 12.4961 5.78997 12.4961H6.605V13.2598C6.605 13.6686 6.95868 14 7.39497 14C7.83126 14 8.18494 13.6686 8.18494 13.2598V12.4961H9.8025C10.2388 12.4961 10.5925 12.1647 10.5925 11.7559C10.5925 11.3471 10.2388 11.0157 9.8025 11.0157H8.18494V10.2402H10.2038C11.7456 10.2402 13 9.06483 13 7.62012C13 6.17538 11.7456 5 10.2038 5ZM10.2038 8.75976H8.18494V6.48038H10.2038C10.8744 6.48038 11.4201 6.99161 11.4201 7.62005C11.4201 8.24849 10.8745 8.75976 10.2038 8.75976Z" fill="#D44C22"/>
</svg>
