<svg width="18" height="13" viewBox="0 0 18 13" fill="none" xmlns="http://www.w3.org/2000/svg">
<path d="M15.8395 0H3.06497C1.87366 0 0.904419 0.969245 0.904419 2.16055V10.3619C0.904419 11.5532 1.87366 12.5224 3.06497 12.5224H15.8395C17.0308 12.5224 18 11.5532 18 10.3619V2.16055C18 0.969245 17.0308 0 15.8395 0ZM15.5019 1.39366L9.45221 6.06698L3.40251 1.39366H15.5019ZM15.8395 11.1289H3.06497C2.64213 11.1289 2.29808 10.7848 2.29808 10.362V2.30159L9.02621 7.49901C9.15164 7.59592 9.30197 7.64433 9.45221 7.64433C9.60245 7.64433 9.75278 7.59592 9.87821 7.49901L16.6063 2.30159V10.3619C16.6063 10.7848 16.2623 11.1289 15.8395 11.1289Z" fill="#D44C22"/>
</svg>
