<svg width="16" height="16" viewBox="0 0 16 16" fill="none" xmlns="http://www.w3.org/2000/svg">
<path d="M15.9007 6.68564C15.8633 6.43942 15.6936 6.23399 15.4592 6.15087L14.2175 5.70935C14.144 5.5013 14.0607 5.29904 13.9684 5.10338L14.5334 3.91424C14.6401 3.69 14.6148 3.42479 14.4675 3.22424C13.9913 2.57649 13.4222 2.00743 12.7762 1.53335C12.5754 1.38599 12.3111 1.36094 12.0864 1.46786L10.898 2.03248C10.7024 1.94013 10.4998 1.857 10.2916 1.78355L9.8499 0.541674C9.76677 0.307755 9.56188 0.138421 9.31621 0.10061C8.4433 -0.0335366 7.79727 -0.0335366 6.92301 0.10061C6.6776 0.138421 6.47244 0.307755 6.38931 0.541674L5.94762 1.78355C5.73939 1.857 5.53685 1.94013 5.34138 2.03248L4.15251 1.46786C3.92827 1.36103 3.66351 1.38608 3.46296 1.53335C2.81693 2.00743 2.24787 2.57649 1.77161 3.22424C1.62426 3.42479 1.59902 3.68991 1.70567 3.91424L2.27075 5.10338C2.1784 5.29868 2.09527 5.50139 2.02163 5.70935L0.779761 6.15132C0.54557 6.23445 0.376055 6.43978 0.338425 6.68564C0.270673 7.13069 0.239014 7.51015 0.239014 7.88138C0.239014 8.25207 0.270673 8.63208 0.338425 9.07712C0.375783 9.32335 0.54557 9.52877 0.779942 9.6119L2.02163 10.0534C2.09527 10.2618 2.17867 10.4642 2.27075 10.6598L1.70567 11.8485C1.59902 12.0728 1.62435 12.338 1.77143 12.5381C2.24705 13.1854 2.81611 13.7544 3.46296 14.2294C3.66351 14.3768 3.92827 14.4023 4.15269 14.2949L5.34111 13.7303C5.53676 13.8226 5.73929 13.9058 5.94753 13.9792L6.38922 15.2211C6.47235 15.455 6.67724 15.6243 6.92291 15.6622C7.35964 15.7295 7.75095 15.762 8.11947 15.762C8.48799 15.762 8.87939 15.7295 9.31602 15.6622C9.56161 15.6243 9.76659 15.455 9.84972 15.2211L10.2914 13.9792C10.4996 13.9058 10.7022 13.8226 10.8978 13.7303L12.0862 14.2949C12.3109 14.4022 12.5757 14.3767 12.7762 14.2294C13.4238 13.7536 13.9929 13.1846 14.4676 12.5381C14.6147 12.338 14.64 12.0728 14.5334 11.8485L13.9683 10.6598C14.0606 10.4642 14.1439 10.2614 14.2174 10.0534L15.4591 9.6119C15.6935 9.52877 15.8632 9.32344 15.9006 9.07712C15.9684 8.63208 16 8.25216 16 7.88138C16 7.5106 15.9684 7.1306 15.9007 6.68564ZM14.6166 8.47758L13.4517 8.89187C13.2481 8.96396 13.0915 9.12932 13.0302 9.33691C12.9261 9.6887 12.7892 10.0216 12.6227 10.3268C12.5194 10.5167 12.513 10.7446 12.6058 10.9398L13.1342 12.0511C12.8789 12.3576 12.5966 12.6404 12.2896 12.8954L11.1785 12.3677C10.983 12.2739 10.7559 12.2814 10.5657 12.3844C10.26 12.5506 9.92697 12.6874 9.57491 12.7916C9.36777 12.8528 9.20241 13.0093 9.13014 13.2129L8.71567 14.3782C8.2926 14.4213 7.94652 14.4213 7.52345 14.3782L7.10898 13.2129C7.03662 13.0097 6.87126 12.8527 6.66421 12.7916C6.31197 12.6874 5.97864 12.5506 5.67344 12.3844C5.48321 12.2806 5.25563 12.274 5.0606 12.3677L3.94953 12.8958C3.64279 12.6403 3.36048 12.358 3.10494 12.0511L3.63329 10.9398C3.7261 10.7445 3.71968 10.5167 3.61638 10.3268C3.45039 10.0225 3.31335 9.68915 3.20896 9.33646C3.14763 9.12932 2.99087 8.96396 2.78744 8.89187L1.62254 8.47758C1.60056 8.26564 1.58998 8.07035 1.58998 7.88129C1.58998 7.69224 1.60056 7.4974 1.62254 7.28546L2.78771 6.87081C2.99105 6.79871 3.14763 6.63336 3.20896 6.42621C3.31317 6.07443 3.45021 5.7411 3.61638 5.43545C3.71968 5.24594 3.7261 5.01763 3.63329 4.82288L3.10494 3.71162C3.36066 3.4047 3.64297 3.12194 3.94953 2.86685L5.06105 3.39503C5.25563 3.48874 5.48412 3.48123 5.67389 3.37829C5.97891 3.21203 6.31197 3.07526 6.66421 2.97106C6.87136 2.90991 7.03671 2.75297 7.10898 2.5498L7.52345 1.38446C7.94254 1.34095 8.28926 1.34095 8.71567 1.38446L9.13014 2.5498C9.2025 2.75297 9.36786 2.91 9.57491 2.97106C9.92715 3.07526 10.2605 3.21203 10.5657 3.37829C10.7559 3.48204 10.983 3.48865 11.1785 3.39503L12.2896 2.86685C12.5961 3.12194 12.8785 3.4047 13.1342 3.71162L12.6058 4.82288C12.513 5.01772 12.5194 5.24594 12.6227 5.43545C12.7895 5.742 12.9264 6.07488 13.0302 6.42576C13.0915 6.63336 13.2481 6.79871 13.4517 6.87081L14.6166 7.2851C14.6386 7.49704 14.6491 7.69233 14.6491 7.88138C14.6491 8.07044 14.6386 8.26564 14.6166 8.47758Z" fill="black"/>
<path d="M8.1195 4.59538C6.39523 4.59538 4.99234 5.99817 4.99234 7.72254C4.99234 9.44691 6.39514 10.8497 8.1195 10.8497C9.84387 10.8497 11.2467 9.44691 11.2467 7.72254C11.2467 5.99817 9.84378 4.59538 8.1195 4.59538ZM8.1195 9.49874C7.14013 9.49874 6.3433 8.70191 6.3433 7.72254C6.3433 6.74317 7.14013 5.94634 8.1195 5.94634C9.09887 5.94634 9.8957 6.74317 9.8957 7.72254C9.8957 8.70191 9.09887 9.49874 8.1195 9.49874Z" fill="black"/>
</svg>
