<svg width="280" height="176" viewBox="0 0 280 176" fill="none" xmlns="http://www.w3.org/2000/svg">
<path d="M57.9958 8.9895V61.8484L82.9645 72.7126L83.3403 18.5584L57.9958 8.9895Z" fill="#9B2E19"/>
<path d="M185.135 22.2764V77.8095L244.676 80.4002V23.321L185.135 22.2764Z" fill="#9B2E19"/>
<path d="M82.9644 72.7127C82.9644 72.7127 136.868 54.2852 185.135 70.0802V22.2774L199.29 18.7674L188.183 12.2488L127.891 6.7749L97.5364 8.2374L83.3401 18.5585L82.9644 72.7127Z" fill="#B73F23"/>
<path d="M57.9958 8.98888L83.382 18.5578C83.382 18.5578 110.104 9.82459 150.313 11.7467C190.522 13.6689 195.783 18.5578 195.783 18.5578L185.136 22.2767L244.676 23.3214L233.946 6.18925L223.716 8.9471C223.716 8.9471 176.242 0.0467499 156.493 0.33925C156.493 0.33925 97.7035 -2.62753 57.9958 8.98888Z" fill="#D44C22"/>
<path d="M279.958 55.5793L279.999 99.8304C279.999 113.327 274.154 126.197 263.924 135.014C251.649 145.627 230.73 157.327 195.949 162.342L179.457 104.092L259.707 76.305L279.958 55.5793Z" fill="black"/>
<path d="M228.893 39.4507L269.603 36.1914C269.603 36.1914 285.052 51.9028 278.288 63.3939C271.524 74.8849 248.434 96.4881 190.48 105.556L196.868 115.918L125.094 101.21L165.428 74.2582L172.818 83.451C172.818 83.451 217.494 78.1024 227.599 63.8953C237.703 49.73 228.893 39.4507 228.893 39.4507Z" fill="#282828"/>
<path d="M125.094 101.21V157.161L195.574 175.839L196.826 115.877L125.094 101.21Z" fill="#141414"/>
<path d="M94.906 126.239V164.807L114.363 141.449V102.212L94.906 126.239Z" fill="#989899"/>
<path d="M5.30273 72.7124V97.157C5.30273 110.946 10.9812 124.151 21.0856 133.552C33.8204 145.336 56.2421 158.707 94.906 164.85V123.858L5.30273 72.7124Z" fill="#A5A5A5"/>
<path d="M56.8267 57.8784V87.7969L39.9583 85.7495L50.1044 60.1766L56.8267 57.8784Z" fill="#A5A5A5"/>
<path d="M74.2797 59.5498V94.1066L56.8267 83.493V57.8784L74.2797 59.5498Z" fill="#989899"/>
<path d="M0 51.7775L2.67223 83.7435H10.8559L24.6346 53.6578L0 51.7775Z" fill="#A5A5A5"/>
<path d="M94.9059 126.24L114.363 102.213C114.363 102.213 67.7661 92.059 59.9999 83.4929C52.2338 74.9269 48.2672 68.8679 56.8266 57.9201L74.3214 59.5915L52.8601 41.3312L0 51.7776L14.6973 53.073C14.6973 53.073 -0.292274 69.2858 7.5574 82.4483C26.8058 114.749 94.9059 126.24 94.9059 126.24Z" fill="#C5C5C5"/>
</svg>
