<svg width="45" height="44" viewBox="0 0 45 44" fill="none" xmlns="http://www.w3.org/2000/svg">
<path fill-rule="evenodd" clip-rule="evenodd" d="M38.9283 21.6904C38.9283 30.7106 31.5927 38.016 22.5338 38.016C13.4749 38.016 6.13867 30.7021 6.13867 21.6904C6.13867 12.6787 13.4834 5.35637 22.5344 5.35637C31.5933 5.35637 38.9283 12.6702 38.9283 21.6904ZM22.5344 10.6979C28.625 10.6979 33.5632 15.6137 33.565 21.6783C33.5663 27.7436 28.6311 32.6618 22.5404 32.6648C16.4492 32.6685 11.5086 27.7551 11.5037 21.6904C11.5037 15.6246 16.4425 10.7069 22.5344 10.7069V10.6979Z" fill="url(#paint0_linear_27_947)"/>
<path fill-rule="evenodd" clip-rule="evenodd" d="M0.99707 0.244644V8.8319H2.64898V1.8899H9.6206V0.244644H0.99707ZM2.64898 34.5489H0.99707V43.1362H9.6206V41.4915H2.64898V34.5483V34.5489ZM35.4477 0.244644V1.8893H42.4193V8.8319H44.0712V0.244644H35.4477ZM44.0712 34.5489H42.4193V41.4909H35.4477V43.1356H44.0712V34.5489Z" fill="#1D1D1B"/>
<defs>
<linearGradient id="paint0_linear_27_947" x1="6.13867" y1="1638.34" x2="38.9289" y2="1638.34" gradientUnits="userSpaceOnUse">
<stop offset="0.00684" stop-color="#EA590C"/>
<stop offset="1" stop-color="#E73512"/>
</linearGradient>
</defs>
</svg>
