<svg width="54" height="54" viewBox="0 0 54 54" fill="none" xmlns="http://www.w3.org/2000/svg">
<path d="M20.2501 52.3125C20.2501 53.2406 19.4907 54 18.5626 54H1.68759C0.759464 54 8.89118e-05 53.2406 8.89118e-05 52.3125C-0.010458 49.8129 0.917667 47.4082 2.59462 45.5625C6.29657 49.718 12.6669 50.0871 16.8224 46.3852C17.1071 46.132 17.3813 45.8578 17.645 45.5625C19.3325 47.4082 20.2606 49.8129 20.2501 52.3125Z" fill="black"/>
<path d="M10.125 45.5625C13.8529 45.5625 16.875 42.5404 16.875 38.8125C16.875 35.0846 13.8529 32.0625 10.125 32.0625C6.39708 32.0625 3.375 35.0846 3.375 38.8125C3.375 42.5404 6.39708 45.5625 10.125 45.5625Z" fill="black"/>
<path d="M43.875 45.5625C47.6029 45.5625 50.625 42.5404 50.625 38.8125C50.625 35.0846 47.6029 32.0625 43.875 32.0625C40.1471 32.0625 37.125 35.0846 37.125 38.8125C37.125 42.5404 40.1471 45.5625 43.875 45.5625Z" fill="black"/>
<path d="M54.0001 52.3125C54.0001 53.2406 53.2407 54 52.3126 54H35.4376C34.5095 54 33.7501 53.2406 33.7501 52.3125C33.7395 49.8129 34.6677 47.4082 36.3446 45.5625C40.0466 49.718 46.4169 50.0871 50.5724 46.3852C50.8571 46.132 51.1313 45.8578 51.395 45.5625C53.0825 47.4082 54.0106 49.8129 54.0001 52.3125Z" fill="black"/>
<path d="M33.75 38.8125C33.75 39.0656 33.7711 39.3188 33.7816 39.5719L27 35.6906L20.2184 39.5719C20.2395 39.3188 20.25 39.0656 20.25 38.8125C20.25 37.8317 20.1023 36.8508 19.8281 35.9121L25.3125 32.7692V30.2906C25.8715 30.3434 26.4305 30.375 27 30.375C27.5695 30.375 28.1285 30.3434 28.6875 30.2906V32.7692L34.1719 35.9121C33.8977 36.8508 33.75 37.8317 33.75 38.8125Z" fill="black"/>
<path d="M27.6326 8.5957H24.5635V12.2766H27.6326C28.6451 12.2766 29.4783 11.4539 29.4783 10.4309C29.4783 9.40781 28.6451 8.5957 27.6326 8.5957Z" fill="#D44C22"/>
<path d="M27.0107 0C19.5646 0 13.5107 6.05391 13.5107 13.5C13.5107 20.9461 19.5646 27 27.0107 27C34.4568 27 40.5107 20.9461 40.5107 13.5C40.5107 6.05391 34.4568 0 27.0107 0ZM27.633 14.7234H24.5639V15.9469H27.0213C27.6963 15.9469 28.2447 16.4953 28.2447 17.1703C28.2447 17.8453 27.6963 18.3937 27.0213 18.3937H24.5639V19.6172C24.5639 20.2922 24.0154 20.8406 23.3404 20.8406C22.6654 20.8406 22.117 20.2922 22.117 19.6172C22.117 19.2691 22.117 7.68867 22.117 7.34062C22.117 6.66562 22.6654 6.11719 23.3404 6.11719H27.633C30.0061 6.11719 31.9256 8.04727 31.9256 10.4098C31.9256 12.7723 29.9955 14.7234 27.633 14.7234Z" fill="#D44C22"/>
</svg>
