<svg width="49" height="43" viewBox="0 0 49 43" fill="none" xmlns="http://www.w3.org/2000/svg">
<path d="M25.7224 18.3341L21.9526 18.9943L22.7468 23.5198L26.5165 22.8597C27.7603 22.6396 28.6023 21.4436 28.3822 20.1998C28.1621 18.9464 26.9662 18.114 25.7224 18.3341Z" fill="black"/>
<path d="M48.982 28.897L45.9203 4.40336C45.7768 3.25523 44.466 2.68116 43.5284 3.33177C35.2139 9.11073 24.3162 11.2348 16.6332 11.9906C8.2327 12.823 1.73616 12.249 1.66918 12.249C0.731537 12.1629 -0.119998 12.9474 0.0139514 13.9999L3.07565 38.4648C3.17133 39.2302 3.82194 39.8043 4.59693 39.8043C12.8253 39.8043 20.3838 39.1632 27.177 37.8907C28.2007 37.6994 29.0523 36.8574 29.1001 35.5466C29.3297 30.2078 33.7883 25.9788 39.1272 26.0266C42.4185 26.0553 45.3271 27.6819 47.1163 30.1695C47.7669 31.0689 49.1351 30.1312 48.982 28.897ZM27.043 25.8735L23.2733 26.5337L23.5412 28.0454L26.5551 27.5096C27.3875 27.3661 28.1816 27.9211 28.3251 28.7535C28.4686 29.5858 27.9137 30.38 27.0813 30.5235L24.0674 31.0593L24.3353 32.571C24.4789 33.4034 23.9239 34.1975 23.0915 34.3411C22.2591 34.4846 21.465 33.9296 21.3215 33.0972C20.9962 31.2602 18.9869 19.8554 18.6616 18.0184C18.5181 17.186 19.073 16.3918 19.9054 16.2483L25.1869 15.3202C28.0955 14.8036 30.8797 16.7554 31.3964 19.664C31.9035 22.5726 29.9612 25.3569 27.043 25.8735Z" fill="black"/>
<path d="M39.0412 42.8659C35.2427 42.8659 32.1523 39.7755 32.1523 35.9771C32.1523 32.1787 35.2427 29.0883 39.0412 29.0883C42.8396 29.0883 45.93 32.1787 45.93 35.9771C45.93 39.7755 42.8396 42.8659 39.0412 42.8659Z" fill="#D44C22"/>
<path d="M19.7044 1.76254C19.2069 2.06871 19.226 2.79586 19.7331 3.0829C21.4553 4.04925 22.9192 5.40788 24.0003 7.05354C24.2587 7.45539 24.7371 7.64675 25.2059 7.55107C28.1719 6.90046 31.2814 6.02022 34.391 4.83381C34.9076 4.63288 35.0512 3.97271 34.6589 3.58043C30.6404 -0.438056 24.4596 -1.11737 19.7044 1.76254Z" fill="#D44C22"/>
<path d="M6.50119 8.1826C6.11847 8.68013 6.48205 9.40728 7.11353 9.40728C11.2755 9.42642 15.6002 9.13939 19.7909 8.52705C20.4224 8.43137 20.6711 7.66594 20.2119 7.21626C16.2508 3.35086 9.84992 3.82925 6.50119 8.1826Z" fill="#D44C22"/>
</svg>
