<svg width="51" height="52" viewBox="0 0 51 52" fill="none" xmlns="http://www.w3.org/2000/svg">
<path d="M10.364 48.3016C11.0017 47.9372 11.781 47.9372 12.4389 48.2814C18.3497 51.4291 21.2242 51.4291 22.3274 51.2267C22.3274 51.2267 31.2645 50.9331 40.4344 42.4009L41.1732 41.662C41.8412 40.994 41.9829 39.9718 41.5072 39.152C40.7481 37.8159 38.987 37.4313 37.732 38.322L34.8778 39.9212C32.9851 40.9839 31.1532 42.1377 29.4224 43.4434C23.3496 48.0385 18.036 43.7571 18.036 43.7571C22.1452 45.2045 26.1128 44.0304 27.8941 42.5628C29.5236 41.2774 29.4629 39.7289 26.3152 39.5163C21.457 39.1924 19.959 38.3119 19.4934 37.7755C19.0683 37.2896 18.5926 36.8645 18.036 36.5508C11.5178 32.9274 5.09082 38.6661 5.09082 38.6661L5.45519 39.3544L9.61504 47.0769L10.2527 48.2712C10.283 48.3016 10.3235 48.3219 10.364 48.3016Z" fill="black"/>
<path d="M4.07888 39.152L9.32171 48.7773L5.33392 51.257L0 41.237L4.07888 39.152Z" fill="black"/>
<path d="M40.5256 3.12024C39.888 3.48461 39.1086 3.48461 38.4507 3.14049C32.5399 0.002885 29.6655 -0.00723629 28.5622 0.19519C28.5622 0.19519 19.6251 0.488707 10.4552 9.02096L9.71639 9.75981C9.04838 10.4278 8.90669 11.4501 9.38239 12.2699C10.1415 13.6059 11.9026 13.9905 13.1576 13.0998L16.0118 11.5007C17.9045 10.4379 19.7365 9.28411 21.4672 7.97847C27.54 3.3834 32.8537 7.66471 32.8537 7.66471C28.7444 6.21736 24.7769 7.39143 22.9955 8.85902C21.366 10.1444 21.4267 11.693 24.5745 11.9055C29.4327 12.2294 30.9306 13.11 31.3962 13.6464C31.8213 14.1322 32.297 14.5573 32.8537 14.8711C39.3617 18.5046 45.7887 12.7658 45.7887 12.7658L45.4243 12.0776L41.2645 4.35504L40.6268 3.16073C40.6066 3.12024 40.5661 3.1 40.5256 3.12024Z" fill="black"/>
<path d="M46.8107 12.2699L41.5679 2.64451L45.5557 0.164795L50.8997 10.1748L46.8107 12.2699Z" fill="black"/>
<path d="M25.2321 22.2899H23.1572V24.7798H25.2321C25.9203 24.7798 26.477 24.2231 26.477 23.5348C26.477 22.8466 25.9102 22.2899 25.2321 22.2899Z" fill="#D44C22"/>
<path d="M24.8174 16.4803C19.777 16.4803 15.688 20.5795 15.688 25.6098C15.688 30.64 19.7871 34.7493 24.8174 34.7493C29.8477 34.7493 33.9468 30.6502 33.9468 25.6098C33.9468 20.5693 29.8477 16.4803 24.8174 16.4803ZM25.2324 26.4397H23.1575V27.2696H24.8174C25.2729 27.2696 25.6473 27.6441 25.6473 28.0996C25.6473 28.5551 25.2729 28.9295 24.8174 28.9295H23.1575V29.7595C23.1575 30.2149 22.783 30.5894 22.3276 30.5894C21.8721 30.5894 21.4976 30.2149 21.4976 29.7595C21.4976 29.5267 21.4976 21.6928 21.4976 21.46C21.4976 21.0046 21.8721 20.6301 22.3276 20.6301H25.2324C26.8315 20.6301 28.1372 21.9357 28.1372 23.5349C28.1372 25.1341 26.8315 26.4397 25.2324 26.4397Z" fill="#D44C22"/>
</svg>
