<svg width="49" height="49" viewBox="0 0 49 49" fill="none" xmlns="http://www.w3.org/2000/svg">
<path fill-rule="evenodd" clip-rule="evenodd" d="M17.017 23.9079C17.017 28.0423 20.3654 31.3906 24.4998 31.3906C28.6341 31.3906 31.9825 28.0423 31.9825 23.9079H17.017ZM48.3668 18.62H35.9229C35.3512 16.6498 34.2793 14.9042 32.8706 13.5056C34.5652 11.5865 37.0458 10.3717 39.8122 10.3717C44.355 10.3717 48.132 13.6485 48.9079 17.9667C48.9691 18.3035 48.7139 18.62 48.3668 18.62ZM24.4998 0.285833C27.3683 0.285833 29.6958 2.61333 29.6958 5.48187C29.6958 8.35042 27.3683 10.6779 24.4998 10.6779C21.6312 10.6779 19.3037 8.35042 19.3037 5.48187C19.3037 2.61333 21.6312 0.285833 24.4998 0.285833ZM14.9958 20.8556H34.0037C34.3916 20.8556 34.6775 20.5085 34.606 20.141C33.7383 15.2921 29.5018 11.6987 24.4998 11.6987C19.4568 11.6987 15.251 15.3431 14.3935 20.141C14.322 20.5085 14.6181 20.8556 14.9958 20.8556ZM9.18725 0C11.77 0 13.8627 2.09271 13.8627 4.67542C13.8627 7.25812 11.77 9.35083 9.18725 9.35083C6.60454 9.35083 4.51183 7.25812 4.51183 4.67542C4.51183 2.09271 6.60454 0 9.18725 0ZM0.632667 18.62C0.285584 18.62 0.0303755 18.3138 0.0916255 17.9769C0.867459 13.6588 4.64454 10.3819 9.18725 10.3819C11.9537 10.3819 14.4343 11.5967 16.1289 13.5158C14.7202 14.9042 13.6585 16.6498 13.0766 18.6302L0.632667 18.62ZM39.8122 0C42.395 0 44.4877 2.09271 44.4877 4.67542C44.4877 7.25812 42.395 9.35083 39.8122 9.35083C37.2295 9.35083 35.1368 7.25812 35.1368 4.67542C35.1368 2.09271 37.2295 0 39.8122 0Z" fill="black"/>
<path fill-rule="evenodd" clip-rule="evenodd" d="M49 23.9079V27.2256L44.9371 28.7875C44.4267 30.9517 43.5692 33.0137 42.3952 34.9125L44.1613 38.8937L39.4756 43.5794L35.4944 41.8133C33.6058 42.9771 31.5335 43.8346 29.3694 44.3552L27.8075 48.4181H21.1721L19.6102 44.3552C17.446 43.8448 15.384 42.9873 13.4852 41.8133L9.50396 43.5794L4.81833 38.8937L6.58437 34.9125C5.42063 33.024 4.56312 30.9517 4.0425 28.7875L0 27.2154V23.8977H12.934C12.934 30.2881 18.1096 35.4637 24.5 35.4637C30.8904 35.4637 36.066 30.2881 36.066 23.8977L49 23.9079Z" fill="#D44C22"/>
</svg>
