<svg width="42" height="42" viewBox="0 0 42 42" fill="none" xmlns="http://www.w3.org/2000/svg">
<g clip-path="url(#clip0_15_116)">
<path d="M28.2188 22.3125H24.9375V26.25H28.2188C29.3016 26.25 30.1875 25.3641 30.1875 24.2812C30.1875 23.1984 29.3016 22.3125 28.2188 22.3125Z" fill="#D44C22"/>
<path d="M27.5625 13.125C19.6055 13.125 13.125 19.6055 13.125 27.5625C13.125 35.5195 19.6055 42 27.5625 42C35.5195 42 42 35.5195 42 27.5625C42 19.6055 35.5195 13.125 27.5625 13.125ZM28.2188 28.875H24.9375V30.1875H27.5625C28.2844 30.1875 28.875 30.7781 28.875 31.5C28.875 32.2219 28.2844 32.8125 27.5625 32.8125H24.9375V34.125C24.9375 34.8469 24.3469 35.4375 23.625 35.4375C22.9031 35.4375 22.3125 34.8469 22.3125 34.125C22.3125 33.7559 22.3125 21.3691 22.3125 21C22.3125 20.2781 22.9031 19.6875 23.625 19.6875H28.2188C30.7535 19.6875 32.8125 21.7465 32.8125 24.2812C32.8125 26.816 30.7535 28.875 28.2188 28.875Z" fill="#D44C22"/>
<path d="M10.7953 24.4043C10.8691 24.0023 10.5656 23.625 10.1473 23.625H7.875C5.70117 23.625 3.9375 25.3887 3.9375 27.5625C3.9375 28.2926 4.52812 28.875 5.25 28.875H9.21211C9.90117 28.875 10.5 28.3254 10.5 27.5625C10.5 26.4879 10.5984 25.4297 10.7953 24.4043Z" fill="black"/>
<path d="M5.25 15.75C3.07617 15.75 1.3125 17.5137 1.3125 19.6875C1.3125 20.4176 1.90312 21 2.625 21H10.9594C11.468 21 11.9273 20.7047 12.1488 20.2453C12.7313 19.0148 13.4613 17.8664 14.3145 16.8164C14.659 16.3898 14.3555 15.75 13.8059 15.75H5.25Z" fill="black"/>
<path d="M29.0309 9.03164C28.3254 8.31797 27.341 7.875 26.25 7.875H7.875C5.70117 7.875 3.9375 9.63867 3.9375 11.8125C3.9375 12.5426 4.52812 13.125 5.25 13.125H17.0543C17.9074 13.125 18.7523 12.9199 19.507 12.518C22.2633 11.0414 25.3148 10.377 28.3746 10.5246C29.1621 10.5574 29.6133 9.60586 29.0309 9.03164Z" fill="black"/>
<path d="M22.3125 0H3.9375C1.76367 0 0 1.76367 0 3.9375C0 4.65938 0.582422 5.25 1.3125 5.25H24.9375C25.6594 5.25 26.25 4.65938 26.25 3.9375C26.25 1.77188 24.4945 0 22.3125 0Z" fill="black"/>
<path d="M9.95039 31.5H3.9375C1.76367 31.5 0 33.2637 0 35.4375V38.0625C0 40.2363 1.76367 42 3.9375 42H16.4227C17.0379 42 17.3168 41.2207 16.841 40.8352C14.1914 38.6941 12.198 35.782 11.2055 32.4352C11.0414 31.8773 10.5328 31.5 9.95039 31.5Z" fill="black"/>
</g>
<defs>
<clipPath id="clip0_15_116">
<rect width="42" height="42" fill="white"/>
</clipPath>
</defs>
</svg>
