<svg width="50" height="17" viewBox="0 0 50 17" fill="none" xmlns="http://www.w3.org/2000/svg">
<path d="M49.6119 15.9531C48.3733 15.9531 47.1347 15.9531 45.8768 15.9531C45.7404 15.307 45.5939 14.6744 45.4776 14.0363C45.4301 13.7714 45.344 13.6687 45.0437 13.6732C43.546 13.6921 42.0483 13.6876 40.5506 13.6759C40.3236 13.674 40.2339 13.748 40.1652 13.9508C39.9592 14.5582 39.7331 15.1601 39.5024 15.7594C39.4713 15.8405 39.3669 15.9522 39.2965 15.9531C37.9461 15.9648 36.5967 15.9612 35.207 15.9612C35.4597 15.361 35.6996 14.7879 35.943 14.2166C37.6833 10.1289 39.4246 6.04123 41.1658 1.95263C41.543 1.06769 42.1078 0.696411 43.081 0.696411C44.1649 0.696411 45.2488 0.696411 46.3602 0.696411C46.4682 1.19476 46.578 1.6859 46.6824 2.17793C47.5393 6.21782 48.3934 10.2578 49.2522 14.2977C49.362 14.815 49.492 15.3286 49.6128 15.8441C49.6119 15.881 49.6119 15.9171 49.6119 15.9531ZM44.7233 10.5326C44.3251 8.65365 43.9324 6.80092 43.5396 4.94722C43.5231 4.94451 43.5076 4.94093 43.4911 4.93822C42.8072 6.79637 42.1224 8.65365 41.4304 10.5326C42.5491 10.5326 43.6193 10.5326 44.7233 10.5326Z" fill="url(#paint0_linear_166_3)"/>
<path d="M33.3438 0.426147C33.8363 0.516263 34.3334 0.590152 34.8214 0.700995C35.2663 0.801929 35.7029 0.943417 36.1762 1.07589C35.9372 2.1744 35.7047 3.24589 35.4768 4.29484C34.8524 4.11461 34.2556 3.90734 33.6422 3.77397C32.8027 3.59193 31.9431 3.52254 31.1036 3.75235C30.7621 3.84606 30.417 4.0254 30.1479 4.25249C29.6874 4.64089 29.681 5.20049 30.1213 5.60874C30.4252 5.88993 30.7841 6.12149 31.1439 6.33418C31.9614 6.81809 32.8192 7.23892 33.6129 7.75534C34.5485 8.3636 35.2306 9.2008 35.3734 10.3318C35.6269 12.3324 34.8754 13.9084 33.168 15.0233C32.0942 15.7243 30.8793 16.0371 29.6133 16.1533C27.8455 16.3154 26.1134 16.12 24.4243 15.5738C24.3108 15.5369 24.201 15.4918 24.0902 15.4468C24.0573 15.4332 24.0288 15.4098 23.9785 15.3792C24.2174 14.2797 24.4564 13.1776 24.7017 12.0457C24.9892 12.1692 25.2602 12.2936 25.5357 12.4026C26.8549 12.9262 28.218 13.165 29.6297 12.9046C29.9968 12.837 30.3722 12.6775 30.6834 12.472C31.3591 12.0259 31.424 11.1878 30.8089 10.6643C30.4042 10.3201 29.9181 10.0659 29.4576 9.78922C28.738 9.35756 27.9727 8.98995 27.2916 8.50691C26.4182 7.88781 25.7865 7.06232 25.6667 5.96473C25.4872 4.32188 26.1061 2.98726 27.3877 1.95092C28.5028 1.04885 29.8265 0.648733 31.2364 0.480209C31.315 0.471201 31.3911 0.444165 31.4679 0.426147C32.0932 0.426147 32.7185 0.426147 33.3438 0.426147Z" fill="url(#paint1_linear_166_3)"/>
<path d="M18.8174 0.710037C18.6078 1.20658 18.4092 1.68059 18.2078 2.1537C16.2853 6.66768 14.361 11.1798 12.4467 15.6973C12.3552 15.9127 12.2435 15.9695 12.0219 15.9676C10.809 15.9578 9.59503 15.9542 8.38204 15.9703C8.12479 15.974 8.04148 15.8848 7.98198 15.6577C6.95391 11.7123 5.90843 7.77068 4.89135 3.82266C4.7046 3.09812 4.33108 2.60338 3.63075 2.29969C2.50838 1.81305 1.34299 1.47152 0.154714 1.19396C0.101617 1.18134 0.0494354 1.16783 0 1.15611C0.00549282 0.698319 0.00549279 0.698318 0.44858 0.698318C2.57155 0.698318 4.69453 0.697419 6.81842 0.698318C7.82543 0.698318 8.55232 1.27416 8.74273 2.25554C9.28194 5.03295 9.80922 7.81297 10.3421 10.5922C10.3649 10.7138 10.3914 10.8346 10.4272 11.0059C10.4821 10.904 10.5205 10.8463 10.5453 10.7842C11.8636 7.50033 13.1828 4.21737 14.4946 0.931722C14.566 0.75239 14.6549 0.69111 14.8517 0.692909C16.083 0.702828 17.3152 0.697419 18.5465 0.698318C18.6253 0.698318 18.7049 0.705528 18.8174 0.710037Z" fill="url(#paint2_linear_166_3)"/>
<path d="M17.207 15.9621C18.3165 10.8597 19.4179 5.7933 20.522 0.714355C21.8649 0.714355 23.1923 0.714355 24.5445 0.714355C24.3769 1.48755 24.2131 2.24634 24.0483 3.00512C23.1365 7.20005 22.2219 11.3949 21.3211 15.5926C21.2589 15.8846 21.1536 15.9765 20.846 15.9711C19.7438 15.9504 18.6406 15.963 17.5375 15.963C17.4386 15.9621 17.3398 15.9621 17.207 15.9621Z" fill="url(#paint3_linear_166_3)"/>
<defs>
<linearGradient id="paint0_linear_166_3" x1="2.77706" y1="8.60778" x2="49.3512" y2="8.2965" gradientUnits="userSpaceOnUse">
<stop stop-color="#262860"/>
<stop offset="1" stop-color="#3D429B"/>
</linearGradient>
<linearGradient id="paint1_linear_166_3" x1="2.77879" y1="8.49278" x2="49.3528" y2="8.18159" gradientUnits="userSpaceOnUse">
<stop stop-color="#262860"/>
<stop offset="1" stop-color="#3D429B"/>
</linearGradient>
<linearGradient id="paint2_linear_166_3" x1="2.77546" y1="8.35475" x2="49.3495" y2="8.04346" gradientUnits="userSpaceOnUse">
<stop stop-color="#262860"/>
<stop offset="1" stop-color="#3D429B"/>
</linearGradient>
<linearGradient id="paint3_linear_166_3" x1="2.77324" y1="8.45846" x2="49.3474" y2="8.14718" gradientUnits="userSpaceOnUse">
<stop stop-color="#262860"/>
<stop offset="1" stop-color="#3D429B"/>
</linearGradient>
</defs>
</svg>
