<svg width="40" height="30" viewBox="0 0 40 30" fill="none" xmlns="http://www.w3.org/2000/svg">
<path d="M38.4782 29.0749V29.1516H38.5498C38.5653 29.1516 38.5788 29.1479 38.5895 29.1419C38.5982 29.136 38.603 29.1255 38.603 29.1129C38.603 29.1003 38.5982 29.0905 38.5895 29.0846C38.5788 29.0779 38.5653 29.0749 38.5498 29.0749H38.4782ZM38.5508 29.0213C38.5876 29.0213 38.6166 29.0295 38.6369 29.0459C38.6572 29.0623 38.6669 29.0846 38.6669 29.1129C38.6669 29.1368 38.6592 29.1561 38.6427 29.1717C38.6272 29.1866 38.604 29.1963 38.574 29.2L38.6688 29.3079H38.5953L38.5063 29.2007H38.4782V29.3079H38.4163V29.0213H38.5508ZM38.5314 29.407C38.5653 29.407 38.5972 29.4003 38.6263 29.3877C38.6553 29.375 38.6814 29.3579 38.7027 29.3363C38.725 29.3147 38.7424 29.2894 38.755 29.2596C38.7675 29.2305 38.7743 29.1993 38.7743 29.1658C38.7743 29.1322 38.7675 29.101 38.755 29.0719C38.7424 29.0429 38.725 29.0169 38.7027 28.9953C38.6814 28.9736 38.6553 28.9565 38.6263 28.9439C38.5972 28.9319 38.5653 28.926 38.5314 28.926C38.4976 28.926 38.4656 28.9319 38.4356 28.9439C38.4056 28.9565 38.3795 28.9736 38.3573 28.9953C38.335 29.0169 38.3176 29.0429 38.306 29.0719C38.2934 29.101 38.2866 29.1322 38.2866 29.1658C38.2866 29.1993 38.2934 29.2305 38.306 29.2596C38.3176 29.2894 38.335 29.3147 38.3573 29.3363C38.3795 29.3579 38.4056 29.375 38.4356 29.3877C38.4656 29.4003 38.4976 29.407 38.5314 29.407ZM38.5314 28.8567C38.5759 28.8567 38.6166 28.865 38.6563 28.8813C38.695 28.897 38.7279 28.9193 38.7579 28.9476C38.7859 28.9752 38.8091 29.0079 38.8256 29.0459C38.842 29.0832 38.8507 29.1233 38.8507 29.1658C38.8507 29.2082 38.842 29.2484 38.8256 29.2857C38.8091 29.3228 38.7859 29.3556 38.7579 29.3839C38.7279 29.4115 38.695 29.4338 38.6563 29.4502C38.6166 29.4665 38.5759 29.4748 38.5314 29.4748C38.486 29.4748 38.4443 29.4665 38.4056 29.4502C38.366 29.4338 38.3321 29.4115 38.304 29.3839C38.275 29.3556 38.2518 29.3228 38.2353 29.2857C38.2189 29.2484 38.2111 29.2082 38.2111 29.1658C38.2111 29.1233 38.2189 29.0832 38.2353 29.0459C38.2518 29.0079 38.275 28.9752 38.304 28.9476C38.3321 28.9193 38.366 28.897 38.4056 28.8813C38.4443 28.865 38.486 28.8567 38.5314 28.8567ZM9.10581 27.7526C9.10581 27.206 9.46906 26.7571 10.0627 26.7571C10.6299 26.7571 11.0128 27.1867 11.0128 27.7526C11.0128 28.3184 10.6299 28.7481 10.0627 28.7481C9.46906 28.7481 9.10581 28.2991 9.10581 27.7526ZM11.6593 27.7526V26.1979H10.9735V26.5753C10.756 26.2954 10.426 26.1197 9.97736 26.1197C9.09294 26.1197 8.39963 26.8032 8.39963 27.7526C8.39963 28.7026 9.09294 29.3854 9.97736 29.3854C10.426 29.3854 10.756 29.2097 10.9735 28.9297V29.3073H11.6593V27.7526ZM34.8341 27.7526C34.8341 27.206 35.197 26.7571 35.7911 26.7571C36.3591 26.7571 36.7413 27.1867 36.7413 27.7526C36.7413 28.3184 36.3591 28.7481 35.7911 28.7481C35.197 28.7481 34.8341 28.2991 34.8341 27.7526ZM37.3886 27.7526V24.9492H36.7016V26.5753C36.4839 26.2954 36.1539 26.1197 35.7059 26.1197C34.8215 26.1197 34.1277 26.8032 34.1277 27.7526C34.1277 28.7026 34.8215 29.3854 35.7059 29.3854C36.1539 29.3854 36.4839 29.2097 36.7016 28.9297V29.3073H37.3886V27.7526ZM20.172 26.725C20.6138 26.725 20.8977 26.9983 20.9703 27.4793H19.3336C19.4069 27.0303 19.6833 26.725 20.172 26.725ZM20.1855 26.1197C19.2611 26.1197 18.6146 26.7831 18.6146 27.7526C18.6146 28.7414 19.2876 29.3854 20.2316 29.3854C20.7067 29.3854 21.1417 29.2686 21.5246 28.9498L21.1885 28.4488C20.9242 28.6564 20.5873 28.7741 20.2709 28.7741C19.8291 28.7741 19.4265 28.5723 19.3275 28.0124H21.6696C21.6765 27.9283 21.6832 27.8434 21.6832 27.7526C21.6765 26.7831 21.0692 26.1197 20.1855 26.1197ZM28.4661 27.7526C28.4661 27.206 28.8299 26.7571 29.4231 26.7571C29.9901 26.7571 30.3733 27.1867 30.3733 27.7526C30.3733 28.3184 29.9901 28.7481 29.4231 28.7481C28.8299 28.7481 28.4661 28.2991 28.4661 27.7526ZM31.0197 27.7526V26.1979H30.3336V26.5753C30.1159 26.2954 29.7869 26.1197 29.3379 26.1197C28.4535 26.1197 27.7597 26.8032 27.7597 27.7526C27.7597 28.7026 28.4535 29.3854 29.3379 29.3854C29.7869 29.3854 30.1159 29.2097 30.3336 28.9297V29.3073H31.0197V27.7526ZM24.5933 27.7526C24.5933 28.6959 25.2593 29.3854 26.2763 29.3854C26.7514 29.3854 27.0678 29.2811 27.4104 29.0146L27.0814 28.4681C26.824 28.6505 26.5531 28.7481 26.256 28.7481C25.7083 28.7414 25.3058 28.3512 25.3058 27.7526C25.3058 27.1539 25.7083 26.7637 26.256 26.7571C26.5531 26.7571 26.824 26.8546 27.0814 27.037L27.4104 26.4905C27.0678 26.2239 26.7514 26.1197 26.2763 26.1197C25.2593 26.1197 24.5933 26.8091 24.5933 27.7526ZM33.4349 26.1197C33.0391 26.1197 32.7817 26.3021 32.6037 26.5753V26.1979H31.9234V29.3073H32.6105V27.5642C32.6105 27.0497 32.835 26.7637 33.283 26.7637C33.4223 26.7637 33.5675 26.7831 33.7126 26.8419L33.9236 26.2045C33.7716 26.1457 33.5742 26.1197 33.4349 26.1197ZM15.0513 26.4451C14.7212 26.2307 14.2665 26.1197 13.7651 26.1197C12.966 26.1197 12.4516 26.4971 12.4516 27.1152C12.4516 27.6222 12.8345 27.935 13.54 28.0325L13.864 28.0779C14.2401 28.13 14.4176 28.2276 14.4176 28.4033C14.4176 28.6438 14.1668 28.7808 13.6986 28.7808C13.2235 28.7808 12.8807 28.6312 12.6495 28.4554L12.3263 28.9818C12.7024 29.2551 13.1774 29.3854 13.6917 29.3854C14.6027 29.3854 15.1305 28.9625 15.1305 28.3706C15.1305 27.8241 14.7152 27.5381 14.0287 27.4406L13.7054 27.3944C13.4085 27.3557 13.1707 27.2976 13.1707 27.0891C13.1707 26.8613 13.395 26.725 13.7711 26.725C14.1736 26.725 14.5634 26.8747 14.7544 26.9916L15.0513 26.4451ZM23.8999 26.1197C23.5041 26.1197 23.2467 26.3021 23.0692 26.5753V26.1979H22.3894V29.3073H23.0752V27.5642C23.0752 27.0497 23.2995 26.7637 23.7481 26.7637C23.8871 26.7637 24.0321 26.7831 24.1771 26.8419L24.3886 26.2045C24.2367 26.1457 24.0389 26.1197 23.8999 26.1197ZM18.0473 26.1979H16.9259V25.2545H16.2324V26.1979H15.5927V26.8159H16.2324V28.2342C16.2324 28.9558 16.5165 29.3854 17.3276 29.3854C17.6252 29.3854 17.9681 29.2946 18.1856 29.1449L17.9877 28.5657C17.7831 28.6826 17.5587 28.7414 17.3805 28.7414C17.0376 28.7414 16.9259 28.5329 16.9259 28.2209V26.8159H18.0473V26.1979ZM7.79312 29.3073V27.3557C7.79312 26.6208 7.3181 26.1263 6.55222 26.1197C6.14968 26.113 5.73428 26.2366 5.4435 26.6729C5.22598 26.3282 4.88314 26.1197 4.40126 26.1197C4.06443 26.1197 3.73514 26.2172 3.47756 26.5813V26.1979H2.79102V29.3073H3.48365V27.5835C3.48365 27.0437 3.7872 26.7571 4.25622 26.7571C4.71168 26.7571 4.94207 27.0497 4.94207 27.5768V29.3073H5.63538V27.5835C5.63538 27.0437 5.9518 26.7571 6.40727 26.7571C6.87551 26.7571 7.09981 27.0497 7.09981 27.5768V29.3073H7.79312Z" fill="#231F20"/>
<path d="M38.9019 18.9667V18.5125H38.7819L38.6426 18.8244L38.5042 18.5125H38.3832V18.9667H38.4684V18.6241L38.599 18.9197H38.6871L38.8167 18.6233V18.9667H38.9019ZM38.1394 18.9667V18.5899H38.2933V18.5132H37.9004V18.5899H38.0552V18.9667H38.1394Z" fill="#F79410"/>
<path d="M25.2494 20.9204H14.8555V2.50537H25.2494V20.9204Z" fill="#FF5F00"/>
<path d="M15.5202 11.7115C15.5202 7.97597 17.2943 4.64843 20.0571 2.50403C18.0368 0.93594 15.4869 0 12.7159 0C6.15573 0 0.837891 5.24335 0.837891 11.7115C0.837891 18.1798 6.15573 23.4231 12.7159 23.4231C15.4869 23.4231 18.0368 22.4871 20.0571 20.919C17.2943 18.7747 15.5202 15.4472 15.5202 11.7115Z" fill="#EB001B"/>
<path d="M39.2652 11.7115C39.2652 18.1798 33.947 23.4231 27.3865 23.4231C24.6157 23.4231 22.066 22.4871 20.0449 20.919C22.8084 18.7747 24.5826 15.4472 24.5826 11.7115C24.5826 7.97597 22.8084 4.64843 20.0449 2.50403C22.066 0.93594 24.6157 0 27.3865 0C33.947 0 39.2652 5.24335 39.2652 11.7115Z" fill="#F79E1B"/>
</svg>
