<svg width="58" height="17" viewBox="0 0 58 17" fill="none" xmlns="http://www.w3.org/2000/svg">
<path fill-rule="evenodd" clip-rule="evenodd" d="M15.985 0.201538V0.208641C15.9782 0.208641 13.7391 0.201538 13.1421 2.3413C12.5944 4.30331 11.052 9.72033 11.0094 9.86964H10.5827C10.5827 9.86964 9.00444 4.33176 8.44999 2.3342C7.85296 0.194427 5.60611 0.201538 5.60611 0.201538H0.488281V16.4808H5.60611V6.81278H5.81995H6.03283L9.01896 16.4808H12.5731L15.5592 6.81984H15.985V16.4808H21.1038V0.201538H15.985Z" fill="#4DB45E"/>
<path fill-rule="evenodd" clip-rule="evenodd" d="M34.6831 0.201538C34.6831 0.201538 33.1833 0.336601 32.4789 1.90766L28.8531 9.86964H28.4274V0.201538H23.3086V16.4808H28.1429C28.1429 16.4808 29.7134 16.3387 30.4178 14.7747L33.9719 6.81278H34.3987V16.4808H39.5165V0.201538H34.6831Z" fill="#4DB45E"/>
<path fill-rule="evenodd" clip-rule="evenodd" d="M41.793 7.59485V16.4809H46.9118V11.2914H52.4563C54.8735 11.2914 56.921 9.74881 57.6816 7.59485H41.793Z" fill="#4DB45E"/>
<path fill-rule="evenodd" clip-rule="evenodd" d="M52.4555 0.201538H41.0742C41.6432 3.301 43.9674 5.78911 46.9749 6.59951C47.657 6.78433 48.375 6.8839 49.1143 6.8839H57.8869C57.9653 6.51416 58.0001 6.13746 58.0001 5.74644C58.0001 2.68253 55.5191 0.201538 52.4555 0.201538Z" fill="url(#paint0_linear_166_4)"/>
<defs>
<linearGradient id="paint0_linear_166_4" x1="41.0762" y1="3.5427" x2="58.0001" y2="3.5427" gradientUnits="userSpaceOnUse">
<stop offset="0.3" stop-color="#00B4E6"/>
<stop offset="1" stop-color="#088CCB"/>
</linearGradient>
</defs>
</svg>
