<svg width="49" height="49" viewBox="0 0 49 49" fill="none" xmlns="http://www.w3.org/2000/svg">
<path d="M41.8223 7.17773C32.252 -2.39258 16.7576 -2.39258 7.17773 7.17773C-2.39258 16.748 -2.39258 32.2424 7.17773 41.8223C16.748 51.3926 32.2424 51.3926 41.8223 41.8223C51.3926 32.252 51.3926 16.7576 41.8223 7.17773ZM24.5 44.9709C13.2166 44.9709 4.0291 35.7834 4.0291 24.5C4.0291 13.2166 13.2166 4.0291 24.5 4.0291C35.7834 4.0291 44.9709 13.2166 44.9709 24.5C44.9709 35.7834 35.7834 44.9709 24.5 44.9709Z" fill="black"/>
<path d="M27.5627 12.269H20.4137C19.3035 12.269 18.4039 13.1687 18.4039 14.2788V22.4901H16.3271C15.217 22.4901 14.3174 23.3897 14.3174 24.4999C14.3174 25.6101 15.217 26.5097 16.3271 26.5097H18.4039V28.6151H16.3271C15.217 28.6151 14.3174 29.5147 14.3174 30.6249C14.3174 31.7351 15.217 32.6347 16.3271 32.6347H18.4039V34.7114C18.4039 35.8216 19.3035 36.7212 20.4137 36.7212C21.5238 36.7212 22.4234 35.8216 22.4234 34.7114V32.6347H26.5387C27.6488 32.6347 28.5484 31.7351 28.5484 30.6249C28.5484 29.5147 27.6488 28.6151 26.5387 28.6151H22.4234V26.5097H27.5627C31.4865 26.5097 34.683 23.3132 34.683 19.3894C34.683 15.4655 31.4961 12.269 27.5627 12.269ZM27.5627 22.4901H22.4234V16.2981H27.5627C29.2662 16.2981 30.6635 17.6858 30.6635 19.3989C30.6635 21.112 29.2758 22.4901 27.5627 22.4901Z" fill="#D44C22"/>
</svg>
