<svg width="43" height="42" viewBox="0 0 43 42" fill="none" xmlns="http://www.w3.org/2000/svg">
<path d="M17.884 22.635C17.884 21.3163 16.8182 20.2505 15.4995 20.2505H13.0427C11.724 20.2505 10.6582 21.3163 10.6582 22.635V39.2002C10.6582 40.5189 11.724 41.5847 13.0427 41.5847H15.5176C16.8363 41.5847 17.9021 40.5189 17.9021 39.2002C17.884 39.2002 17.884 22.635 17.884 22.635Z" fill="black"/>
<path d="M7.22581 28.4153C7.22581 27.0062 6.08774 25.8501 4.66065 25.8501H2.56516C1.15613 25.8501 0 26.9882 0 28.4153V39.0191C0 40.4282 1.13806 41.5843 2.56516 41.5843H4.67871C6.08774 41.5843 7.24387 40.4462 7.24387 39.0191V28.4153H7.22581Z" fill="black"/>
<path d="M28.3611 16.3123C28.3611 14.9935 27.2953 13.9277 25.9765 13.9277H23.5017C22.183 13.9277 21.1172 14.9935 21.1172 16.3123V39.2C21.1172 40.5187 22.183 41.5845 23.5017 41.5845H25.9765C27.2953 41.5845 28.3611 40.5187 28.3611 39.2V16.3123Z" fill="black"/>
<path d="M41.6208 7.18972L36.9782 1.22843C36.5808 0.722624 36.0027 0.415527 35.4246 0.415527C34.8466 0.415527 34.2685 0.70456 33.8711 1.22843L29.2285 7.17166C28.8311 7.67746 28.7408 8.23746 28.9575 8.70714C29.2104 9.21295 29.8066 9.52004 30.5472 9.52004H31.7937V39.2542C31.7937 40.5729 32.8595 41.5665 34.1782 41.5665H36.6711C37.9898 41.5665 39.0375 40.5729 39.0375 39.2542V9.52004L40.3021 9.53811C41.0608 9.53811 41.6569 9.23101 41.9098 8.72521C42.1085 8.25553 42.0182 7.69553 41.6208 7.18972Z" fill="#D44C22"/>
</svg>
