<svg width="44" height="44" viewBox="0 0 44 44" fill="none" xmlns="http://www.w3.org/2000/svg">
<path d="M40.8377 11.6445C41.3447 11.6445 41.6971 12.143 41.5338 12.6242C41.3018 13.2859 40.7604 14.0336 39.5057 14.0336H4.49474C3.24005 14.0336 2.69865 13.2859 2.46662 12.6242C2.30333 12.1516 2.65568 11.6445 3.16271 11.6445H40.8377Z" fill="black"/>
<path d="M19.5423 33.1806H14.6095C14.197 33.1806 13.8619 32.8368 13.8791 32.4243L14.4462 16.1993C14.4634 15.804 14.7814 15.4946 15.1767 15.4946H18.9837C19.3791 15.4946 19.7056 15.804 19.7142 16.1993L20.2814 32.4243C20.29 32.8368 19.9634 33.1806 19.5423 33.1806Z" fill="#D44C22"/>
<path d="M9.52182 33.1806C6.65151 33.1806 5.27651 33.1806 4.58901 33.1806C4.17651 33.1806 3.84136 32.8368 3.85854 32.4243L4.42573 16.1993C4.44292 15.804 4.76089 15.4946 5.1562 15.4946H8.96323C9.35854 15.4946 9.68511 15.804 9.6937 16.1993L10.2609 32.4243C10.2695 32.8368 9.93432 33.1806 9.52182 33.1806Z" fill="#D44C22"/>
<path d="M29.3822 33.1806H24.4494C24.0369 33.1806 23.7017 32.8368 23.7189 32.4243L24.2861 16.1993C24.3033 15.804 24.6212 15.4946 25.0166 15.4946H28.8236C29.2189 15.4946 29.5455 15.804 29.554 16.1993L30.1212 32.4243C30.1298 32.8368 29.8033 33.1806 29.3822 33.1806Z" fill="#D44C22"/>
<path d="M39.411 33.1806C38.7321 33.1806 37.3485 33.1806 34.4782 33.1806C34.0657 33.1806 33.7305 32.8368 33.7477 32.4243L34.3149 16.1993C34.3321 15.804 34.65 15.4946 35.0454 15.4946H38.8438C39.2391 15.4946 39.5657 15.804 39.5743 16.1993L40.1415 32.4243C40.1586 32.8368 39.8235 33.1806 39.411 33.1806Z" fill="#D44C22"/>
<path d="M41.3615 37.228C36.1795 37.2108 7.82013 37.2108 2.64669 37.228C2.17404 37.228 1.82169 36.7897 1.93341 36.3343C2.11388 35.5866 2.61232 34.6499 4.03888 34.6499H39.9693C41.3959 34.6499 41.9029 35.5866 42.0748 36.3343C42.1865 36.7897 41.8256 37.228 41.3615 37.228Z" fill="black"/>
<path d="M44 7.49375V7.975C44 9.18672 43.0117 10.175 41.8 10.175H2.2C0.988281 10.175 0 9.18672 0 7.975V7.49375C0 6.49687 0.670313 5.62031 1.64141 5.37109L21.8109 0.0257813C21.9312 -0.00859375 22.0602 -0.00859375 22.1891 0.0257813L42.3672 5.3625C43.3297 5.62031 44 6.49687 44 7.49375Z" fill="black"/>
<path d="M44 40.8804V43.2609C44 43.6648 43.6734 43.9914 43.2695 43.9914H0.730469C0.326563 43.9914 0 43.6648 0 43.2609V40.8804C0 39.6687 0.988281 38.6804 2.2 38.6804H41.8C43.0117 38.6804 44 39.6687 44 40.8804Z" fill="black"/>
</svg>
