<svg width="20" height="20" viewBox="0 0 20 20" fill="none" xmlns="http://www.w3.org/2000/svg">
<path d="M14.6107 9.44329C14.3501 7.31712 12.6721 5.64329 10.5452 5.3881C10.3621 5.3672 10.178 5.35673 9.99363 5.35669C8.11402 5.35958 6.4216 6.49552 5.70683 8.23392C4.99207 9.97231 5.39601 11.9702 6.73 13.2944C7.43937 13.9737 7.84562 14.9099 7.85722 15.892V16.4285H12.1429V15.8893C12.1462 14.9257 12.5382 14.0043 13.2301 13.3336C14.2752 12.3253 14.7863 10.885 14.6107 9.44345V9.44329H14.6107Z" fill="#D44C22"/>
<path d="M9.99994 20.0001C10.4538 19.9996 10.8583 19.7135 11.0102 19.2858H8.98975C9.14154 19.7135 9.54603 19.9996 9.99994 20.0001Z" fill="#D44C22"/>
<path d="M8.21436 18.2141C8.21463 18.4113 8.37436 18.571 8.5715 18.5713H11.4287C11.6258 18.571 11.7855 18.4113 11.7858 18.2141V17.1427H8.21436V18.2141Z" fill="#D44C22"/>
<path d="M9.99994 3.2143C10.3944 3.2143 10.7142 2.89449 10.7142 2.5V0.714297C10.7142 0.319805 10.3944 0 9.99994 0C9.60545 0 9.28564 0.319805 9.28564 0.714297V2.5C9.28564 2.89449 9.60545 3.2143 9.99994 3.2143Z" fill="#D44C22"/>
<path d="M3.97184 4.98203C4.25449 5.25199 4.69941 5.25199 4.98207 4.98203C5.11605 4.84809 5.19133 4.66637 5.19133 4.47691C5.19133 4.28746 5.11605 4.10574 4.98207 3.9718L3.7193 2.70926C3.58539 2.57527 3.40371 2.5 3.2143 2.5C3.02488 2.5 2.8432 2.57527 2.70926 2.70926C2.57527 2.84316 2.5 3.02484 2.5 3.2143C2.5 3.40375 2.57527 3.58539 2.70926 3.71934L3.97184 4.98203Z" fill="#D44C22"/>
<path d="M3.2143 10.0001C3.2143 9.60557 2.89449 9.28577 2.5 9.28577H0.714297C0.319961 9.28616 0.000390625 9.60573 0 10.0001C0.000390625 10.3944 0.319961 10.714 0.714297 10.7144H2.5C2.89449 10.7144 3.2143 10.3946 3.2143 10.0001Z" fill="#D44C22"/>
<path d="M4.6623 14.8319C4.41543 14.7659 4.15215 14.8368 3.9718 15.0178L2.70926 16.2806C2.57527 16.4145 2.5 16.5962 2.5 16.7856C2.5 16.9751 2.57527 17.1567 2.70926 17.2906C2.99184 17.5606 3.43672 17.5606 3.7193 17.2906L4.98203 16.0281C5.16305 15.8478 5.23398 15.5845 5.16801 15.3376C5.10203 15.0907 4.90918 14.8978 4.6623 14.8319Z" fill="#D44C22"/>
<path d="M16.0283 15.0178C15.8479 14.8368 15.5846 14.7659 15.3378 14.8319C15.0909 14.8978 14.8981 15.0906 14.8321 15.3375C14.7661 15.5844 14.837 15.8477 15.0181 16.028L16.2808 17.2906C16.5634 17.5605 17.0083 17.5605 17.2909 17.2906C17.4248 17.1567 17.5001 16.975 17.5001 16.7855C17.5001 16.5961 17.4248 16.4144 17.2909 16.2805L16.0283 15.0178Z" fill="#D44C22"/>
<path d="M19.2856 9.28577H17.4999C17.1054 9.28577 16.7856 9.60557 16.7856 10.0001C16.7856 10.3946 17.1054 10.7144 17.4999 10.7144H19.2856C19.6801 10.7144 19.9999 10.3946 19.9999 10.0001C19.9999 9.60557 19.6801 9.28577 19.2856 9.28577Z" fill="#D44C22"/>
<path d="M16.0281 4.98202L17.2907 3.71928C17.4711 3.53885 17.5416 3.27588 17.4755 3.0294C17.4095 2.78291 17.217 2.59041 16.9705 2.52436C16.724 2.4583 16.461 2.52877 16.2806 2.7092L15.0179 3.97174C14.8839 4.10569 14.8086 4.28741 14.8086 4.47686C14.8086 4.66631 14.8839 4.84803 15.0179 4.98198C15.3005 5.25198 15.7455 5.25198 16.0281 4.98202Z" fill="#D44C22"/>
</svg>
