<svg width="16" height="18" viewBox="0 0 16 18" fill="none" xmlns="http://www.w3.org/2000/svg">
<path d="M14.0453 4.84621C14.6188 4.84621 15.0838 4.38128 15.0838 3.80775C15.0838 3.23422 14.6188 2.76929 14.0453 2.76929C13.4718 2.76929 13.0068 3.23422 13.0068 3.80775C13.0068 4.38128 13.4718 4.84621 14.0453 4.84621Z" fill="#D44C22"/>
<path d="M11.276 2.76918C11.8495 2.76918 12.3145 2.30425 12.3145 1.73072C12.3145 1.1572 11.8495 0.692261 11.276 0.692261C10.7025 0.692261 10.2375 1.1572 10.2375 1.73072C10.2375 2.30425 10.7025 2.76918 11.276 2.76918Z" fill="#D44C22"/>
<path d="M8.50672 2.07692C9.08025 2.07692 9.54518 1.61199 9.54518 1.03846C9.54518 0.464935 9.08025 0 8.50672 0C7.9332 0 7.46826 0.464935 7.46826 1.03846C7.46826 1.61199 7.9332 2.07692 8.50672 2.07692Z" fill="#D44C22"/>
<path d="M5.73756 3.46157C6.31108 3.46157 6.77602 2.99663 6.77602 2.42311C6.77602 1.84958 6.31108 1.38464 5.73756 1.38464C5.16403 1.38464 4.6991 1.84958 4.6991 2.42311C4.6991 2.99663 5.16403 3.46157 5.73756 3.46157Z" fill="#D44C22"/>
<path d="M13.0068 3.80768V8.30768C13.0068 8.49876 12.8517 8.65384 12.6606 8.65384C12.4696 8.65384 12.3145 8.49876 12.3145 8.30768V1.73076H10.2375V7.61538C10.2375 7.80645 10.0825 7.96153 9.8914 7.96153C9.70032 7.96153 9.54524 7.80645 9.54524 7.61538V1.03845H7.46832V7.61538C7.46832 7.80645 7.31324 7.96153 7.12217 7.96153C6.93109 7.96153 6.77601 7.80645 6.77601 7.61538V2.42307H4.69909V11.0769L3.29717 9.15853C2.88178 8.51814 2.07109 8.30353 1.47709 8.67045C0.885166 9.04568 0.738397 9.86399 1.14824 10.5023C1.14824 10.5023 3.40932 13.9244 4.37301 15.3893C5.3367 16.8542 6.89786 18 9.81732 18C14.651 18 15.0837 14.2671 15.0837 13.1538C15.0837 12.0406 15.0837 3.80768 15.0837 3.80768H13.0068Z" fill="#D44C22"/>
</svg>
