<svg width="18" height="18" viewBox="0 0 18 18" fill="none" xmlns="http://www.w3.org/2000/svg">
<path d="M7.3581 3.743C6.40744 3.04623 5.43206 2.18747 4.73787 1.14618L4.13016 0.234647C4.00141 0.0415341 3.76144 -0.0444581 3.53844 0.0224794C3.31597 0.0899443 3.16406 0.294905 3.16406 0.527183V8.80099C2.85258 8.61934 2.49529 8.50765 2.10938 8.50765C0.94602 8.50765 0 9.45367 0 10.617C0 11.7804 0.94602 12.7264 2.10938 12.7264C3.27273 12.7264 4.21875 11.7803 4.21875 10.617V2.25866C4.96392 3.20057 5.89605 3.97886 6.73446 4.59374C7.14642 4.89552 7.38281 5.3611 7.38281 5.8709C7.38281 6.74326 6.67315 7.45293 5.80078 7.45293C5.5093 7.45293 5.27344 7.68879 5.27344 7.98027C5.27344 8.27175 5.5093 8.50762 5.80078 8.50762C7.2546 8.50762 8.4375 7.32471 8.4375 5.8709C8.4375 5.03404 8.03426 4.23891 7.3581 3.743Z" fill="#D44C22"/>
<path d="M17.328 4.30839L9.87483 6.41777C9.64825 6.48266 9.49219 6.68966 9.49219 6.92503V14.0738C9.1807 13.8922 8.82341 13.7805 8.4375 13.7805C7.27414 13.7805 6.32812 14.7265 6.32812 15.8899C6.32812 17.0532 7.27414 17.9993 8.4375 17.9993C9.60086 17.9993 10.5469 17.0532 10.5469 15.8899C10.5469 15.7696 10.5469 9.43238 10.5469 9.43238L16.9453 7.62433V11.9645C16.6338 11.7828 16.2765 11.6711 15.8906 11.6711C14.7273 11.6711 13.7812 12.6171 13.7812 13.7805C13.7812 14.9439 14.7273 15.8899 15.8906 15.8899C17.054 15.8899 18 14.9439 18 13.7805C18 13.6603 18 4.81566 18 4.81566C18 4.46687 17.6664 4.2128 17.328 4.30839Z" fill="#D44C22"/>
</svg>
