<svg width="12" height="19" viewBox="0 0 12 19" fill="none" xmlns="http://www.w3.org/2000/svg">
<path d="M10.8023 9.7218C10.2057 9.7218 9.72203 10.2055 9.72203 10.802C9.72203 10.2055 9.23837 9.7218 8.6418 9.7218C8.04523 9.7218 7.56157 10.2055 7.56157 10.802C7.56157 10.2055 7.07792 9.7218 6.48134 9.7218C5.88477 9.7218 5.40112 10.2055 5.40112 10.802V5.94101C5.40112 5.34443 4.91746 4.86078 4.32089 4.86078C3.72432 4.86078 3.24066 5.34443 3.24066 5.94101V9.7218V12.4224H3.17639L2.16043 11.0678C1.88562 10.6157 1.25239 10.5072 0.782172 10.8207C0.335318 11.1186 0.180233 11.7026 0.420404 12.183L2.79284 17.4679C3.06729 18.0169 3.62836 18.3636 4.24207 18.3636H10.2621C11.157 18.3636 11.8825 17.6382 11.8825 16.7433V11.3421V10.802C11.8825 10.2055 11.3988 9.7218 10.8023 9.7218Z" fill="#D44C22"/>
<path d="M1.08023 4.32091C1.08023 2.534 2.534 1.08023 4.32091 1.08023C6.10782 1.08023 7.56159 2.534 7.56159 4.32091C7.56159 5.25649 7.15028 6.12896 6.48137 6.7323V8.06159C6.97838 7.77343 7.41925 7.38696 7.76766 6.92689C8.3395 6.17163 8.64182 5.2705 8.64182 4.32091C8.64182 1.93836 6.70346 0 4.32091 0C1.93836 0 0 1.93836 0 4.32091C0 5.2705 0.302284 6.17163 0.874156 6.92689C1.22257 7.38692 1.66344 7.77343 2.16045 8.06159V6.7323C1.49154 6.12896 1.08023 5.25649 1.08023 4.32091Z" fill="#D44C22"/>
<path d="M5.84518 2.78929C5.43725 2.38316 4.89638 2.15991 4.32105 2.15991C4.31778 2.15991 4.31443 2.15991 4.31119 2.15991C3.16409 2.16506 2.22059 3.06557 2.1633 4.21004C2.14742 4.52734 2.2032 4.84032 2.31961 5.12831C2.50645 4.66978 2.84618 4.28936 3.2755 4.05092C3.39714 3.59039 3.82537 3.24237 4.31598 3.24014H4.32098C4.60865 3.24014 4.87917 3.3518 5.08312 3.55481C5.22308 3.69416 5.32005 3.86505 5.36758 4.05157C5.79744 4.2907 6.13738 4.67213 6.32376 5.13187C6.42663 4.87773 6.4814 4.6031 6.4814 4.32037C6.4814 3.74147 6.25545 3.19772 5.84518 2.78929Z" fill="#D44C22"/>
</svg>
