<svg width="18" height="17" viewBox="0 0 18 17" fill="none" xmlns="http://www.w3.org/2000/svg">
<path d="M9 0C8.70852 0 8.47266 0.235864 8.47266 0.527346V2.10938C8.47266 2.40086 8.70852 2.63673 9 2.63673C9.29148 2.63673 9.52735 2.40086 9.52735 2.10938V0.527346C9.52735 0.235864 9.29148 0 9 0Z" fill="#D44C22"/>
<path d="M6.20879 3.31819L5.15409 2.26349C4.94808 2.05751 4.61437 2.05751 4.40839 2.26349C4.20241 2.46948 4.20241 2.80322 4.40839 3.0092L5.46308 4.06389C5.66906 4.26987 6.0028 4.26987 6.20879 4.06389C6.41477 3.85791 6.41477 3.52417 6.20879 3.31819Z" fill="#D44C22"/>
<path d="M13.5916 2.26349C13.3856 2.05751 13.0519 2.05751 12.8459 2.26349L11.7912 3.31819C11.5852 3.52417 11.5852 3.85791 11.7912 4.06389C11.9972 4.26987 12.3309 4.26987 12.5369 4.06389L13.5916 3.0092C13.7976 2.80322 13.7976 2.46948 13.5916 2.26349Z" fill="#D44C22"/>
<path d="M17.4727 7.38245H15.8555V14.7653H17.4727C17.7641 14.7653 18 14.5294 18 14.2379V7.90979C18 7.61831 17.7641 7.38245 17.4727 7.38245Z" fill="#D44C22"/>
<path d="M0.527345 7.38245C0.235864 7.38245 0 7.61831 0 7.90979V14.2379C0 14.5294 0.235864 14.7653 0.527345 14.7653H2.14454V7.38245H0.527345Z" fill="#D44C22"/>
<path d="M8.59724 7.90967C8.19502 7.90967 7.83351 8.13316 7.65379 8.49263L6.04858 11.7041C6.31739 11.822 6.60166 11.8817 6.89213 11.8817C7.69499 11.8817 8.41753 11.4342 8.77749 10.7132L9.12459 10.019H10.1453C10.4229 10.019 10.6948 10.1318 10.891 10.328L14.8008 14.2378V7.90967H8.59724Z" fill="#D44C22"/>
<path d="M10.1453 11.0743H9.77662L9.74618 11.1352C9.24805 12.1314 8.27661 12.8348 7.16647 12.9255C6.34965 12.9923 5.7836 12.7573 5.11239 12.4521C4.83944 12.3279 4.72068 12.0018 4.85477 11.7336L6.71014 8.02193C7.06747 7.30706 7.79813 6.85547 8.5973 6.85547H10.8731C11.0192 6.53193 11.1094 6.17871 11.1094 5.80078C11.1094 5.5093 10.8735 5.27344 10.5821 5.27344H6.48792C5.88854 5.27344 5.34066 5.61203 5.0726 6.14813L4.60108 7.0912C4.51171 7.2699 4.32911 7.38282 4.12928 7.38282H3.19922V14.7657H5.61759L7.11156 16.2596C7.54462 16.6927 8.16836 16.8294 8.70646 16.6495L13.21 15.2338C13.4792 15.158 13.7061 15.0099 13.8911 14.82L10.1453 11.0743Z" fill="#D44C22"/>
</svg>
