<svg width="16" height="16" viewBox="0 0 16 16" fill="none" xmlns="http://www.w3.org/2000/svg">
<path d="M15.7274 0.447685L15.4461 0.166435C15.2668 -0.0128623 14.9961 -0.0480186 14.7887 0.0644814C14.5531 -0.0234092 14.3317 0.0363564 14.1172 0.250809C13.9836 0.384403 13.9133 0.542606 13.9133 0.714872C13.9133 0.806278 13.9379 0.929325 14.0223 1.06643C14.0117 1.06995 13.9977 1.06995 13.9871 1.0805L13.8641 1.19651C13.8641 1.18597 13.8746 1.18245 13.8746 1.1719C13.8746 1.0137 13.7797 0.823856 13.618 0.665653C13.3543 0.401981 13.0414 0.331669 12.8797 0.496903C12.8375 0.535575 12.7918 0.609403 12.7918 0.721903C12.7918 0.880106 12.8867 1.06995 13.0485 1.23167C13.2137 1.3969 13.4 1.48831 13.5547 1.48831L13.0731 1.94534C13.0695 1.76604 12.9887 1.57972 12.8445 1.43558C12.6969 1.29143 12.5106 1.20706 12.3278 1.20706C12.1871 1.20706 12.0606 1.25979 11.9692 1.3512C11.8778 1.44261 11.825 1.56917 11.825 1.70979C11.825 1.89261 11.9094 2.08245 12.0535 2.23011C12.1977 2.37425 12.3699 2.44456 12.5387 2.45511L9.80705 5.03909C9.45548 4.82464 8.40783 4.26565 7.44455 4.56097C7.07189 4.67698 6.76955 4.84925 6.51994 5.09534C6.21759 5.39065 6.05587 5.72464 5.9258 5.99182L5.89416 6.05511C5.84845 6.14651 5.80627 6.22737 5.76056 6.30472C5.72541 6.36448 5.68322 6.41722 5.64103 6.46292C5.59181 6.51214 5.56017 6.51917 5.52502 6.51565L5.47228 6.4594C5.44416 6.42776 5.39845 6.41018 5.35627 6.42073C5.31408 6.42776 5.27892 6.45589 5.26134 6.49104L5.11369 6.83909C5.09962 6.87073 5.10314 6.9094 5.1172 6.94104C5.13478 6.97268 5.15939 6.99729 5.19455 7.00784L5.24025 7.0219C5.24025 7.0219 5.31056 7.05003 5.37033 7.10979C5.42658 7.16604 5.45119 7.23284 5.45119 7.30667C5.44416 7.42972 5.37033 7.64065 5.03634 7.96409C5.02228 7.98167 5.0047 7.99925 4.97658 8.02034C4.24884 8.69534 3.64416 8.92034 3.35939 8.62151C3.32423 8.58636 3.29259 8.54065 3.26095 8.48089L3.24337 8.44925C3.21877 8.40354 3.13087 8.37893 3.07814 8.38597L2.74767 8.43167C2.67736 8.4387 2.62462 8.50198 2.63517 8.57229L2.6422 8.62854C2.6422 8.63206 2.6422 8.63909 2.64572 8.64261C2.64572 8.66018 2.6422 8.74456 2.54377 8.843C2.45236 8.93089 2.31525 9.00472 2.13244 9.05745C1.83361 9.14886 1.35548 9.41604 0.958219 9.80979C0.666422 10.0981 0.444937 10.411 0.304312 10.752C-0.00506265 11.4867 0.0652499 12.2742 0.522281 13.0899C0.726187 13.452 0.993375 13.7614 1.19025 13.9617C1.21134 13.9828 1.23244 14.0004 1.2465 14.018C1.22541 14.1059 1.23595 14.1762 1.25705 14.2219C1.26408 14.2395 1.27462 14.2571 1.28869 14.2711L1.66134 14.6438C1.68244 14.6649 1.6965 14.6754 1.72462 14.6789C1.77033 14.7 1.83712 14.7071 1.91447 14.686L1.97423 14.7492C2.17111 14.9426 2.48048 15.2133 2.84611 15.4137C3.33127 15.6844 3.80236 15.818 4.26291 15.818C4.5758 15.818 4.88166 15.7547 5.18048 15.6317C5.5215 15.491 5.83439 15.2696 6.11916 14.9778C6.50939 14.584 6.78009 14.1024 6.87502 13.8C6.87502 13.8 6.87502 13.8 6.87502 13.7965C6.92775 13.6137 6.99806 13.4766 7.08947 13.3887C7.18439 13.2938 7.26877 13.2867 7.28986 13.2867H7.30041L7.35666 13.2938C7.434 13.3114 7.49025 13.2516 7.5008 13.1813L7.55002 12.8227C7.56056 12.7664 7.53244 12.7102 7.4797 12.6821L7.45158 12.668C7.3883 12.6328 7.34259 12.6012 7.30744 12.566C7.01213 12.2778 7.23712 11.6731 7.91564 10.9453C7.93322 10.9242 7.9508 10.9067 7.97892 10.8821C8.22502 10.6289 8.45353 10.4848 8.6258 10.4778C8.69962 10.4813 8.76291 10.5024 8.82267 10.5551C8.88244 10.6149 8.91056 10.6852 8.91056 10.6852L8.92814 10.7344C8.93869 10.766 8.9633 10.7942 8.99845 10.8082C9.02658 10.8223 9.06525 10.8223 9.09689 10.8117L9.44142 10.6641C9.48009 10.6465 9.50822 10.6114 9.51525 10.5692C9.52228 10.527 9.50822 10.4848 9.47658 10.4532L9.4133 10.3723C9.41681 10.3547 9.43087 10.3266 9.46955 10.2844C9.50822 10.2422 9.56447 10.2035 9.62775 10.1649C9.69455 10.1262 9.76838 10.0875 9.84572 10.0453L9.93361 9.99964C10.2008 9.86956 10.5383 9.70433 10.8301 9.4055C11.0727 9.1594 11.2485 8.85354 11.3645 8.47737C11.6598 7.51761 11.1008 6.46995 10.8863 6.11839L13.4844 3.3762C13.4949 3.53089 13.5793 3.70315 13.7305 3.85081C13.8887 4.00901 14.0785 4.10393 14.2403 4.10393C14.3352 4.10393 14.4195 4.07229 14.4793 4.00901C14.5391 3.94925 14.5742 3.86487 14.5742 3.76995C14.5742 3.60823 14.4793 3.41839 14.3211 3.26018C14.2156 3.15472 14.0926 3.07386 13.9731 3.03518C13.9203 3.01761 13.8711 3.02112 13.8184 3.02112L14.286 2.52542C14.2754 2.71175 14.3422 2.91214 14.5039 3.07386C14.6551 3.22503 14.8449 3.30237 15.0207 3.30237C15.1578 3.30237 15.2844 3.25667 15.3793 3.16175H15.3828C15.6043 2.94026 15.5692 2.55354 15.2985 2.27933C15.1508 2.13167 14.9645 2.05081 14.7817 2.05081C14.7606 2.05081 14.7465 2.05784 14.7254 2.06136L14.8449 1.93479C14.859 1.92073 14.859 1.90315 14.866 1.88206C14.968 1.93831 15.0735 1.97347 15.1789 1.97347C15.3477 1.97347 15.5129 1.90315 15.657 1.75901C15.8645 1.55159 15.9242 1.33011 15.8328 1.09808C15.9453 0.9012 15.9102 0.634013 15.7274 0.447685Z" fill="#D44C22"/>
</svg>
