<svg width="28" height="16" viewBox="0 0 28 16" fill="none" xmlns="http://www.w3.org/2000/svg">
<path d="M23.235 9.17486C22.7823 8.61486 22.9118 8.36572 23.235 7.86514C23.2408 7.85943 26.9778 2.80114 27.3628 1.08571L27.3651 1.08457C27.5565 0.459428 27.3651 0 26.4399 0H23.3785C22.5991 0 22.2398 0.394286 22.0473 0.835429C22.0473 0.835429 20.4885 4.49029 18.2835 6.85943C17.5718 7.544 17.2428 7.76343 16.8542 7.76343C16.6629 7.76343 16.3654 7.544 16.3654 6.91886V1.08457C16.3654 0.334857 16.1472 0 15.502 0H10.6882C10.1994 0 9.90884 0.349714 9.90884 0.675429C9.90884 1.38629 11.0114 1.54971 11.1257 3.54971V7.88914C11.1257 8.84 10.9495 9.01486 10.5587 9.01486C9.518 9.01486 6.99208 5.34514 5.49519 1.14514C5.19301 0.330286 4.89784 0.00114277 4.11264 0.00114277H1.05004C0.176173 0.00114277 0 0.395428 0 0.836571C0 1.616 1.0407 5.49143 4.8395 10.6114C7.37125 14.1063 10.9367 16 14.1802 16C16.1297 16 16.3677 15.5794 16.3677 14.856C16.3677 11.5166 16.1916 11.2011 17.1681 11.2011C17.6208 11.2011 18.4001 11.4206 20.2202 13.1063C22.3004 15.1051 22.6423 16 23.8067 16H26.8681C27.7408 16 28.183 15.5794 27.9286 14.7497C27.3464 13.0046 23.4123 9.41486 23.235 9.17486Z" fill="white"/>
</svg>
