<svg width="16" height="20" viewBox="0 0 16 20" fill="none" xmlns="http://www.w3.org/2000/svg">
<path d="M8.17831 0C5.40417 0 3.12988 2.2493 3.12988 5.04843C3.12988 7.82256 5.37918 10.0969 8.17831 10.0969C10.9524 10.0969 13.2267 7.84755 13.2267 5.04843C13.2267 2.2493 10.9524 0 8.17831 0ZM8.17831 7.54765C6.77874 7.54765 5.6541 6.423 5.6541 5.02343C5.6541 3.62387 6.77874 2.49922 8.17831 2.49922C9.57787 2.49922 10.7025 3.62387 10.7025 5.02343C10.7025 6.423 9.57787 7.54765 8.17831 7.54765Z" fill="white"/>
<path d="M15.6007 10.8716C15.1509 10.0468 14.1012 9.74694 13.2765 10.2218C9.85252 12.1462 6.50357 12.1462 3.07964 10.2218C2.25489 9.74694 1.20522 10.0468 0.755361 10.8716C0.280509 11.6963 0.580416 12.746 1.40516 13.1959C2.57979 13.8707 3.77942 14.3455 4.97904 14.6704L2.5548 17.0946C1.88001 17.7694 1.88001 18.8441 2.5548 19.4939C3.22959 20.1687 4.30425 20.1687 4.95405 19.4939L8.17805 16.2699L11.402 19.4939C12.0768 20.1687 13.1515 20.1687 13.8013 19.4939C14.4761 18.8191 14.4761 17.7444 13.8013 17.0946L11.377 14.6704C12.5767 14.3455 13.7763 13.8707 14.9509 13.1959C15.7757 12.721 16.0756 11.6963 15.6007 10.8716Z" fill="white"/>
</svg>
